<?xml version="1.0" encoding="UTF-8" standalone="no"?>
<!-- Created with Inkscape (http://www.inkscape.org/) -->

<svg
   xmlns:dc="http://purl.org/dc/elements/1.1/"
   xmlns:cc="http://creativecommons.org/ns#"
   xmlns:rdf="http://www.w3.org/1999/02/22-rdf-syntax-ns#"
   xmlns:svg="http://www.w3.org/2000/svg"
   xmlns="http://www.w3.org/2000/svg"
   xmlns:sodipodi="http://sodipodi.sourceforge.net/DTD/sodipodi-0.dtd"
   xmlns:inkscape="http://www.inkscape.org/namespaces/inkscape"
   width="210mm"
   height="297mm"
   viewBox="0 0 210 297"
   version="1.1"
   id="svg8"
   inkscape:version="0.92.3 (3ce5693, 2018-03-11)"
   sodipodi:docname="abt-hugo-bulma.svg"
   inkscape:export-filename="/home/ab/abt-hugo-bulma-small.png"
   inkscape:export-xdpi="40.326714"
   inkscape:export-ydpi="40.326714">
  <defs
     id="defs2" />
  <sodipodi:namedview
     id="base"
     pagecolor="#ffffff"
     bordercolor="#666666"
     borderopacity="1.0"
     inkscape:pageopacity="0.0"
     inkscape:pageshadow="2"
     inkscape:zoom="1.4"
     inkscape:cx="473.26679"
     inkscape:cy="647.3218"
     inkscape:document-units="mm"
     inkscape:current-layer="layer1"
     showgrid="false"
     inkscape:window-width="1366"
     inkscape:window-height="744"
     inkscape:window-x="0"
     inkscape:window-y="24"
     inkscape:window-maximized="1" />
  <metadata
     id="metadata5">
    <rdf:RDF>
      <cc:Work
         rdf:about="">
        <dc:format>image/svg+xml</dc:format>
        <dc:type
           rdf:resource="http://purl.org/dc/dcmitype/StillImage" />
        <dc:title></dc:title>
      </cc:Work>
    </rdf:RDF>
  </metadata>
  <g
     inkscape:label="Layer 1"
     inkscape:groupmode="layer"
     id="layer1">
    <text
       xml:space="preserve"
       style="font-style:normal;font-weight:normal;font-size:10.58333302px;line-height:1.25;font-family:sans-serif;letter-spacing:0px;word-spacing:0px;fill:#000000;fill-opacity:1;stroke:none;stroke-width:0.26458332"
       x="107.44235"
       y="112.04948"
       id="text828"><tspan
         sodipodi:role="line"
         id="tspan826"
         x="107.44235"
         y="121.41325"
         style="stroke-width:0.26458332" /></text>
    <g
       id="g860">
      <path
         style="fill:#d0d0d0;stroke-width:0.03609816"
         d="m 105.83688,121.0209 c -0.26358,-0.0666 -0.56439,-0.2638 -0.6884,-0.45118 -0.18744,-0.28325 -0.20252,-0.43046 -0.20252,-1.97686 0,-0.85765 0.014,-1.44683 0.0353,-1.48669 0.10046,-0.18771 0.65913,-0.18771 0.75959,0 0.0211,0.0395 0.0361,0.61389 0.0374,1.43111 0.001,0.95882 0.0149,1.4023 0.0451,1.49017 0.0628,0.18247 0.24213,0.29003 0.4834,0.29003 0.10725,0 0.2442,-0.0254 0.30434,-0.0565 0.20345,-0.10521 0.21195,-0.17002 0.21195,-1.61635 0,-0.72283 0.0105,-1.36667 0.0233,-1.43076 0.0354,-0.1768 0.19419,-0.26088 0.46044,-0.24374 0.1795,0.0115 0.22669,0.0296 0.29999,0.11483 l 0.087,0.10112 -0.0125,1.46645 c -0.0114,1.33709 -0.0186,1.48397 -0.0822,1.66499 -0.0955,0.27203 -0.36332,0.53896 -0.65087,0.64872 -0.27676,0.10563 -0.8068,0.13172 -1.11141,0.0547 z m -3.72979,-0.016 c -0.1966,-0.0825 -0.19338,-0.049 -0.19338,-2.01103 v -1.81291 l 0.0872,-0.10128 0.0872,-0.10129 h 0.84235 c 0.80258,0 0.85086,0.004 1.0224,0.083 0.37198,0.17145 0.52307,0.42889 0.52332,0.89166 1.8e-4,0.36246 -0.0419,0.51509 -0.19898,0.72081 l -0.12441,0.16298 0.16242,0.14971 c 0.22227,0.20488 0.2846,0.42227 0.26187,0.91326 -0.0264,0.57156 -0.18611,0.8537 -0.58767,1.03852 -0.16937,0.0779 -0.23058,0.0836 -0.9927,0.0911 -0.44672,0.004 -0.84702,-0.007 -0.88957,-0.0245 z m 1.47945,-0.79766 c 0.11982,-0.0943 0.18137,-0.31958 0.15809,-0.57882 -0.033,-0.3676 -0.14918,-0.44665 -0.65773,-0.4475 l -0.32488,-5.4e-4 -0.01,0.5505 -0.01,0.5505 h 0.3751 c 0.32371,0 0.38802,-0.0102 0.46935,-0.0741 z m -0.10418,-1.7532 c 0.14811,-0.0568 0.21185,-0.39411 0.11125,-0.58866 -0.0699,-0.13525 -0.11059,-0.14697 -0.50966,-0.14697 h -0.33998 v 0.37903 0.37903 h 0.33998 c 0.18699,0 0.36627,-0.0101 0.39841,-0.0224 z m 4.83501,2.51679 c -0.0741,-0.0452 -0.11996,-0.10781 -0.13537,-0.18486 -0.0128,-0.0641 -0.0233,-0.86783 -0.0233,-1.78608 0,-0.91825 0.0105,-1.72198 0.0233,-1.78607 0.0305,-0.15234 0.19374,-0.25321 0.40987,-0.25321 0.21613,0 0.3794,0.10087 0.40987,0.25321 0.0128,0.0641 0.0233,0.77922 0.0233,1.58918 v 1.47264 l 0.67106,0.0119 c 0.65621,0.0116 0.67261,0.0138 0.74047,0.0977 0.13755,0.17 0.13173,0.44811 -0.0122,0.58217 -0.0733,0.0683 -0.12777,0.0721 -1.03616,0.0719 -0.87708,-1.1e-4 -0.96837,-0.006 -1.07088,-0.0685 z m 2.69308,0.0451 c -0.0298,-0.012 -0.0907,-0.055 -0.13537,-0.0956 l -0.0812,-0.0739 v -1.82027 -1.82028 l 0.12273,-0.12273 c 0.10425,-0.10425 0.14792,-0.12274 0.28995,-0.12274 0.22204,0 0.38084,0.071 0.49299,0.22029 0.0507,0.0675 0.22686,0.37057 0.39155,0.67359 0.1647,0.30302 0.31057,0.55782 0.32416,0.56622 0.0136,0.008 0.14572,-0.20624 0.29363,-0.47698 0.39889,-0.73013 0.51198,-0.89421 0.64938,-0.9421 0.26933,-0.0939 0.55949,-0.0231 0.64132,0.15652 0.0316,0.0693 0.0431,0.5767 0.0431,1.89786 0,1.73783 -0.003,1.80575 -0.0702,1.87339 -0.14091,0.14091 -0.52759,0.1422 -0.66767,0.002 -0.0708,-0.0707 -0.0752,-0.12492 -0.0924,-1.12922 l -0.0181,-1.05493 -0.23348,0.41513 c -0.28956,0.51485 -0.34851,0.57757 -0.54272,0.57757 -0.19382,0 -0.25178,-0.0654 -0.52334,-0.59065 -0.11912,-0.23041 -0.22877,-0.41919 -0.24366,-0.41951 -0.0149,-3.2e-4 -0.0271,0.47579 -0.0271,1.05802 v 1.0586 l -0.09,0.0845 c -0.0659,0.0619 -0.14069,0.0875 -0.27976,0.0956 -0.10439,0.006 -0.21416,0.001 -0.24394,-0.0106 z m 3.50018,-0.0577 c -0.10114,-0.051 -0.17309,-0.11642 -0.19348,-0.17586 -0.0262,-0.0763 0.0595,-0.39525 0.44115,-1.64247 0.68779,-2.24787 0.60952,-2.0388 0.79914,-2.13442 0.26215,-0.1322 0.62989,-0.0833 0.7656,0.10182 0.0354,0.0482 0.13902,0.33136 0.23036,0.62917 0.0913,0.2978 0.25337,0.82574 0.36008,1.17319 0.59153,1.92588 0.55569,1.78363 0.48343,1.91864 -0.0512,0.0957 -0.30588,0.20936 -0.47139,0.21035 -0.20171,10e-4 -0.26788,-0.0829 -0.38285,-0.48653 l -0.10281,-0.36098 -0.5349,-0.01 c -0.33009,-0.006 -0.55211,0.004 -0.57984,0.0273 -0.0247,0.0205 -0.0831,0.17934 -0.12971,0.35294 -0.10067,0.37489 -0.18386,0.4781 -0.38537,0.4781 -0.0761,0 -0.21084,-0.0366 -0.29941,-0.0812 z m 1.7129,-1.55223 c -0.0143,-0.0447 -0.0967,-0.33175 -0.18316,-0.63797 -0.0864,-0.30621 -0.16281,-0.56241 -0.16974,-0.56934 -0.007,-0.007 -0.0732,0.20301 -0.14722,0.46651 -0.074,0.2635 -0.15674,0.55625 -0.18376,0.65056 l -0.0491,0.17147 h 0.37952 c 0.37721,0 0.37936,-5e-4 0.3535,-0.0812 z m -9.0466,-5.2848 c -1.28914,-1.28751 -2.35762,-2.36552 -2.37439,-2.39558 -0.0186,-0.0334 0.15089,-1.31903 0.43549,-3.30298 0.25628,-1.78658 0.46598,-3.27234 0.46598,-3.30169 1e-5,-0.0706 3.79155,-3.8633 3.86215,-3.8633 0.0593,0 4.76532,4.6878 4.76532,4.74684 0,0.0197 -0.6294,0.66538 -1.39865,1.43482 l -1.39866,1.399 1.86793,1.86819 c 1.02736,1.0275 1.86793,1.89417 1.86793,1.92594 0,0.0365 -1.04003,0.74819 -2.82188,1.93112 -1.55204,1.03035 -2.84561,1.87904 -2.87461,1.88597 -0.0311,0.007 -1.01411,-0.94758 -2.39661,-2.32833 z"
         id="path874"
         inkscape:connector-curvature="0" />
      <path
         style="fill:#a1e7dd;stroke-width:0.03609816"
         d="m 105.84034,120.98559 c -0.35855,-0.0908 -0.61001,-0.29474 -0.75708,-0.61396 -0.082,-0.17801 -0.0833,-0.20138 -0.094,-1.69843 -0.0108,-1.51499 -0.0107,-1.51807 0.067,-1.58831 0.10975,-0.0993 0.49878,-0.10036 0.60788,-0.002 0.0746,0.0675 0.076,0.0929 0.0768,1.40783 4.7e-4,0.73648 0.0156,1.40261 0.0336,1.48027 0.018,0.0777 0.0821,0.19058 0.14245,0.25091 0.0946,0.0946 0.14079,0.11144 0.33639,0.12245 0.27967,0.0157 0.45139,-0.0614 0.5425,-0.24384 0.0567,-0.11347 0.0632,-0.26419 0.0637,-1.48002 2.8e-4,-0.74452 0.0105,-1.39088 0.0227,-1.43635 0.0621,-0.23171 0.66152,-0.25094 0.7486,-0.024 0.0399,0.10394 0.0248,2.68609 -0.0171,2.92667 -0.0723,0.41494 -0.37255,0.76894 -0.7481,0.88192 -0.21954,0.066 -0.79331,0.0753 -1.02538,0.0165 z m -3.79908,-0.068 -0.0914,-0.0915 v -1.8206 c 0,-1.73901 0.003,-1.82442 0.069,-1.90582 0.069,-0.0852 0.0695,-0.0852 0.91409,-0.0852 h 0.84505 l 0.21278,0.10885 c 0.31414,0.1607 0.42764,0.35863 0.44412,0.77448 0.0157,0.39679 -0.0352,0.58401 -0.20986,0.77123 l -0.13839,0.14837 0.18861,0.18148 c 0.22317,0.21474 0.27364,0.36647 0.27364,0.82263 0,0.53774 -0.15527,0.86024 -0.50816,1.05547 l -0.19576,0.10829 -0.85612,0.0119 -0.85612,0.0119 z m 1.56561,-0.69299 c 0.13673,-0.11504 0.19811,-0.3261 0.17375,-0.59742 -0.0206,-0.22913 -0.0919,-0.3618 -0.22798,-0.42378 -0.14612,-0.0666 -0.72293,-0.0972 -0.78953,-0.042 -0.045,0.0374 -0.0552,0.14422 -0.0552,0.57689 0,0.29207 0.0108,0.54186 0.0241,0.5551 0.0132,0.0132 0.19067,0.0241 0.39431,0.0241 0.34506,0 0.37775,-0.006 0.48062,-0.0929 z m -0.12697,-1.74657 c 0.1929,-0.0733 0.26454,-0.42298 0.13141,-0.64133 -0.0876,-0.14361 -0.15131,-0.16032 -0.56051,-0.14695 l -0.32488,0.0106 -0.0104,0.35841 c -0.006,0.19713 -0.002,0.37987 0.008,0.4061 0.022,0.0574 0.61301,0.0677 0.7565,0.0132 z m 4.87021,2.48211 c -0.0436,-0.0211 -0.0964,-0.0874 -0.11732,-0.14734 -0.052,-0.14911 -0.0521,-3.4764 -10e-5,-3.62549 0.0445,-0.12773 0.16333,-0.19086 0.35918,-0.19086 0.19585,0 0.31466,0.0631 0.35919,0.19086 0.0241,0.0692 0.0379,0.65762 0.0379,1.61944 v 1.51073 h 0.65254 0.65255 l 0.11002,0.11002 c 0.0982,0.0982 0.10804,0.1275 0.0917,0.2722 -0.0349,0.30985 -0.0134,0.30399 -1.10633,0.30121 -0.59815,-0.002 -0.98993,-0.0169 -1.03935,-0.0408 z m 2.66034,0.0195 c -0.0298,-0.012 -0.0826,-0.0466 -0.11732,-0.0769 -0.0586,-0.0511 -0.0632,-0.18674 -0.0632,-1.87517 v -1.82014 l 0.10551,-0.10552 c 0.0865,-0.0865 0.13589,-0.10552 0.27431,-0.10552 0.34748,0 0.42234,0.0802 0.90288,0.96698 0.15371,0.28366 0.2967,0.51 0.31776,0.50298 0.0211,-0.007 0.17967,-0.27159 0.35248,-0.58794 0.17281,-0.31635 0.36942,-0.63889 0.43691,-0.71675 0.1133,-0.13071 0.13978,-0.14281 0.345,-0.15766 0.20933,-0.0151 0.22868,-0.01 0.33203,0.0937 l 0.10975,0.10975 v 1.82014 c 0,1.7498 -0.003,1.82256 -0.0694,1.88294 -0.0795,0.072 -0.31543,0.11274 -0.45277,0.0783 -0.0513,-0.0129 -0.12542,-0.0555 -0.16462,-0.0947 -0.0678,-0.0677 -0.0713,-0.12399 -0.0713,-1.13618 0,-0.61992 -0.0138,-1.06489 -0.033,-1.06489 -0.0182,0 -0.15218,0.21347 -0.29781,0.47437 -0.21566,0.38638 -0.28622,0.48343 -0.38037,0.52319 -0.12955,0.0547 -0.24462,0.0271 -0.34102,-0.0819 -0.0327,-0.037 -0.16818,-0.27443 -0.30098,-0.52757 -0.13279,-0.25314 -0.25626,-0.46025 -0.27437,-0.46025 -0.0191,0 -0.0329,0.46662 -0.0329,1.11345 0,1.07046 -0.003,1.11599 -0.0728,1.17929 -0.0742,0.0671 -0.39738,0.10943 -0.50481,0.0661 z m 3.57373,-0.0169 c -0.12251,-0.0489 -0.2527,-0.17589 -0.2527,-0.24658 0,-0.13778 1.04753,-3.51223 1.11424,-3.58937 0.0804,-0.0929 0.26507,-0.16649 0.41804,-0.16649 0.16146,0 0.4091,0.0982 0.45262,0.17957 0.0368,0.0688 0.12014,0.33051 0.50019,1.5712 0.13989,0.45664 0.32834,1.07112 0.41879,1.36552 0.16678,0.54282 0.18222,0.62184 0.14196,0.72675 -0.0339,0.0884 -0.28095,0.19996 -0.44272,0.19996 -0.18865,0 -0.25746,-0.0897 -0.36517,-0.47594 -0.046,-0.16509 -0.0993,-0.32048 -0.1184,-0.34529 -0.0402,-0.0523 -1.05814,-0.0647 -1.13824,-0.0139 -0.0261,0.0166 -0.0945,0.19067 -0.15193,0.3869 -0.0576,0.19688 -0.13246,0.37727 -0.16697,0.40251 -0.0734,0.0537 -0.28144,0.0563 -0.40971,0.005 z m 1.69522,-1.46654 c -0.005,-0.10718 -0.38574,-1.34948 -0.41303,-1.3493 -0.027,1.8e-4 -0.27287,0.80263 -0.39679,1.29515 -0.0203,0.0807 -0.0178,0.0812 0.39538,0.0812 0.2287,0 0.4152,-0.0122 0.41444,-0.0271 z m -9.08383,-5.38014 c -1.2941,-1.28471 -2.36705,-2.36461 -2.38434,-2.39977 -0.0204,-0.0415 0.13452,-1.22152 0.44232,-3.36864 l 0.47375,-3.30471 1.89241,-1.89267 c 1.04082,-1.04097 1.91688,-1.89267 1.94679,-1.89267 0.0299,0 1.11603,1.06175 2.41361,2.35945 2.06704,2.06722 2.35456,2.36789 2.32144,2.4276 -0.0208,0.0375 -0.64796,0.67723 -1.39371,1.42166 -0.74576,0.74442 -1.35592,1.36869 -1.35592,1.38725 0,0.0186 0.83917,0.86369 1.86482,1.87805 1.2028,1.18957 1.85877,1.86325 1.84778,1.89768 -0.009,0.0294 -0.20282,0.17972 -0.42991,0.33414 -0.94679,0.64381 -5.2405,3.49138 -5.26238,3.48998 -0.0131,-8.3e-4 -1.08256,-1.05264 -2.37666,-2.33735 z"
         id="path872"
         inkscape:connector-curvature="0" />
      <path
         style="fill:#5fdecb;stroke-width:0.03609816"
         d="m 105.84034,120.98559 c -0.35855,-0.0908 -0.61001,-0.29474 -0.75708,-0.61396 -0.082,-0.17801 -0.0833,-0.20138 -0.094,-1.69843 -0.0108,-1.51499 -0.0107,-1.51807 0.067,-1.58831 0.10975,-0.0993 0.49878,-0.10036 0.60788,-0.002 0.0746,0.0675 0.076,0.0929 0.0768,1.40783 4.7e-4,0.73648 0.0156,1.40261 0.0336,1.48027 0.018,0.0777 0.0821,0.19058 0.14245,0.25091 0.0946,0.0946 0.14079,0.11144 0.33639,0.12245 0.27967,0.0157 0.45139,-0.0614 0.5425,-0.24384 0.0567,-0.11347 0.0632,-0.26419 0.0637,-1.48002 2.8e-4,-0.74452 0.0105,-1.39088 0.0227,-1.43635 0.0621,-0.23171 0.66152,-0.25094 0.7486,-0.024 0.0399,0.10394 0.0248,2.68609 -0.0171,2.92667 -0.0723,0.41494 -0.37255,0.76894 -0.7481,0.88192 -0.21954,0.066 -0.79331,0.0753 -1.02538,0.0165 z m -3.79908,-0.068 -0.0914,-0.0915 v -1.8206 c 0,-1.73901 0.003,-1.82442 0.069,-1.90582 0.069,-0.0852 0.0695,-0.0852 0.91409,-0.0852 h 0.84505 l 0.21278,0.10885 c 0.31414,0.1607 0.42764,0.35863 0.44412,0.77448 0.0157,0.39679 -0.0352,0.58401 -0.20986,0.77123 l -0.13839,0.14837 0.18861,0.18148 c 0.22317,0.21474 0.27364,0.36647 0.27364,0.82263 0,0.53774 -0.15527,0.86024 -0.50816,1.05547 l -0.19576,0.10829 -0.85612,0.0119 -0.85612,0.0119 z m 1.56561,-0.69299 c 0.13673,-0.11504 0.19811,-0.3261 0.17375,-0.59742 -0.0206,-0.22913 -0.0919,-0.3618 -0.22798,-0.42378 -0.14612,-0.0666 -0.72293,-0.0972 -0.78953,-0.042 -0.045,0.0374 -0.0552,0.14422 -0.0552,0.57689 0,0.29207 0.0108,0.54186 0.0241,0.5551 0.0132,0.0132 0.19067,0.0241 0.39431,0.0241 0.34506,0 0.37775,-0.006 0.48062,-0.0929 z m -0.12697,-1.74657 c 0.1929,-0.0733 0.26454,-0.42298 0.13141,-0.64133 -0.0876,-0.14361 -0.15131,-0.16032 -0.56051,-0.14695 l -0.32488,0.0106 -0.0104,0.35841 c -0.006,0.19713 -0.002,0.37987 0.008,0.4061 0.022,0.0574 0.61301,0.0677 0.7565,0.0132 z m 4.87021,2.48211 c -0.0436,-0.0211 -0.0964,-0.0874 -0.11732,-0.14734 -0.052,-0.14911 -0.0521,-3.4764 -10e-5,-3.62549 0.0445,-0.12773 0.16333,-0.19086 0.35918,-0.19086 0.19585,0 0.31466,0.0631 0.35919,0.19086 0.0241,0.0692 0.0379,0.65762 0.0379,1.61944 v 1.51073 h 0.65254 0.65255 l 0.11002,0.11002 c 0.0982,0.0982 0.10804,0.1275 0.0917,0.2722 -0.0349,0.30985 -0.0134,0.30399 -1.10633,0.30121 -0.59815,-0.002 -0.98993,-0.0169 -1.03935,-0.0408 z m 2.66034,0.0195 c -0.0298,-0.012 -0.0826,-0.0466 -0.11732,-0.0769 -0.0586,-0.0511 -0.0632,-0.18674 -0.0632,-1.87517 v -1.82014 l 0.10551,-0.10552 c 0.0865,-0.0865 0.13589,-0.10552 0.27431,-0.10552 0.34748,0 0.42234,0.0802 0.90288,0.96698 0.15371,0.28366 0.2967,0.51 0.31776,0.50298 0.0211,-0.007 0.17967,-0.27159 0.35248,-0.58794 0.17281,-0.31635 0.36942,-0.63889 0.43691,-0.71675 0.1133,-0.13071 0.13978,-0.14281 0.345,-0.15766 0.20933,-0.0151 0.22868,-0.01 0.33203,0.0937 l 0.10975,0.10975 v 1.82014 c 0,1.7498 -0.003,1.82256 -0.0694,1.88294 -0.0795,0.072 -0.31543,0.11274 -0.45277,0.0783 -0.0513,-0.0129 -0.12542,-0.0555 -0.16462,-0.0947 -0.0678,-0.0677 -0.0713,-0.12399 -0.0713,-1.13618 0,-0.61992 -0.0138,-1.06489 -0.033,-1.06489 -0.0182,0 -0.15218,0.21347 -0.29781,0.47437 -0.21566,0.38638 -0.28622,0.48343 -0.38037,0.52319 -0.12955,0.0547 -0.24462,0.0271 -0.34102,-0.0819 -0.0327,-0.037 -0.16818,-0.27443 -0.30098,-0.52757 -0.13279,-0.25314 -0.25626,-0.46025 -0.27437,-0.46025 -0.0191,0 -0.0329,0.46662 -0.0329,1.11345 0,1.07046 -0.003,1.11599 -0.0728,1.17929 -0.0742,0.0671 -0.39738,0.10943 -0.50481,0.0661 z m 3.57373,-0.0169 c -0.12251,-0.0489 -0.2527,-0.17589 -0.2527,-0.24658 0,-0.13778 1.04753,-3.51223 1.11424,-3.58937 0.0804,-0.0929 0.26507,-0.16649 0.41804,-0.16649 0.16146,0 0.4091,0.0982 0.45262,0.17957 0.0368,0.0688 0.12014,0.33051 0.50019,1.5712 0.13989,0.45664 0.32834,1.07112 0.41879,1.36552 0.16678,0.54282 0.18222,0.62184 0.14196,0.72675 -0.0339,0.0884 -0.28095,0.19996 -0.44272,0.19996 -0.18865,0 -0.25746,-0.0897 -0.36517,-0.47594 -0.046,-0.16509 -0.0993,-0.32048 -0.1184,-0.34529 -0.0402,-0.0523 -1.05814,-0.0647 -1.13824,-0.0139 -0.0261,0.0166 -0.0945,0.19067 -0.15193,0.3869 -0.0576,0.19688 -0.13246,0.37727 -0.16697,0.40251 -0.0734,0.0537 -0.28144,0.0563 -0.40971,0.005 z m 1.69522,-1.46654 c -0.005,-0.10718 -0.38574,-1.34948 -0.41303,-1.3493 -0.027,1.8e-4 -0.27287,0.80263 -0.39679,1.29515 -0.0203,0.0807 -0.0178,0.0812 0.39538,0.0812 0.2287,0 0.4152,-0.0122 0.41444,-0.0271 z m -9.10449,-5.45093 c -1.84892,-1.84908 -2.33725,-2.35636 -2.33725,-2.42794 0,-0.0936 0.88662,-6.33701 0.92267,-6.49722 0.0241,-0.10715 3.72263,-3.82641 3.80507,-3.82641 0.071,0 4.69388,4.62155 4.69388,4.69256 0,0.0301 -0.61728,0.67183 -1.37173,1.42608 -0.75445,0.75426 -1.37173,1.39576 -1.37173,1.42557 0,0.0298 0.8362,0.89083 1.85823,1.91338 1.10405,1.10462 1.84757,1.87505 1.83198,1.89829 -0.0286,0.0425 -0.17455,0.14084 -3.39288,2.2843 -1.19647,0.79687 -2.20365,1.44885 -2.23819,1.44885 -0.035,0 -1.09913,-1.03643 -2.40005,-2.33746 z"
         id="path870"
         inkscape:connector-curvature="0" />
      <path
         style="fill:#a0a0a0;stroke-width:0.03609816"
         d="m 105.84034,120.98559 c -0.35855,-0.0908 -0.61001,-0.29474 -0.75708,-0.61396 -0.082,-0.17801 -0.0833,-0.20138 -0.094,-1.69843 -0.0108,-1.51499 -0.0107,-1.51807 0.067,-1.58831 0.10975,-0.0993 0.49878,-0.10036 0.60788,-0.002 0.0746,0.0675 0.076,0.0929 0.0768,1.40783 4.7e-4,0.73648 0.0156,1.40261 0.0336,1.48027 0.018,0.0777 0.0821,0.19058 0.14245,0.25091 0.0946,0.0946 0.14079,0.11144 0.33639,0.12245 0.27967,0.0157 0.45139,-0.0614 0.5425,-0.24384 0.0567,-0.11347 0.0632,-0.26419 0.0637,-1.48002 2.8e-4,-0.74452 0.0105,-1.39088 0.0227,-1.43635 0.0621,-0.23171 0.66152,-0.25094 0.7486,-0.024 0.0399,0.10394 0.0248,2.68609 -0.0171,2.92667 -0.0723,0.41494 -0.37255,0.76894 -0.7481,0.88192 -0.21954,0.066 -0.79331,0.0753 -1.02538,0.0165 z m -3.79908,-0.068 -0.0914,-0.0915 v -1.8206 c 0,-1.73901 0.003,-1.82442 0.069,-1.90582 0.069,-0.0852 0.0695,-0.0852 0.91409,-0.0852 h 0.84505 l 0.21278,0.10885 c 0.31414,0.1607 0.42764,0.35863 0.44412,0.77448 0.0157,0.39679 -0.0352,0.58401 -0.20986,0.77123 l -0.13839,0.14837 0.18861,0.18148 c 0.22317,0.21474 0.27364,0.36647 0.27364,0.82263 0,0.53774 -0.15527,0.86024 -0.50816,1.05547 l -0.19576,0.10829 -0.85612,0.0119 -0.85612,0.0119 z m 1.56561,-0.69299 c 0.13673,-0.11504 0.19811,-0.3261 0.17375,-0.59742 -0.0206,-0.22913 -0.0919,-0.3618 -0.22798,-0.42378 -0.14612,-0.0666 -0.72293,-0.0972 -0.78953,-0.042 -0.045,0.0374 -0.0552,0.14422 -0.0552,0.57689 0,0.29207 0.0108,0.54186 0.0241,0.5551 0.0132,0.0132 0.19067,0.0241 0.39431,0.0241 0.34506,0 0.37775,-0.006 0.48062,-0.0929 z m -0.12697,-1.74657 c 0.1929,-0.0733 0.26454,-0.42298 0.13141,-0.64133 -0.0876,-0.14361 -0.15131,-0.16032 -0.56051,-0.14695 l -0.32488,0.0106 -0.0104,0.35841 c -0.006,0.19713 -0.002,0.37987 0.008,0.4061 0.022,0.0574 0.61301,0.0677 0.7565,0.0132 z m 4.87021,2.48211 c -0.0436,-0.0211 -0.0964,-0.0874 -0.11732,-0.14734 -0.052,-0.14911 -0.0521,-3.4764 -10e-5,-3.62549 0.0445,-0.12773 0.16333,-0.19086 0.35918,-0.19086 0.19585,0 0.31466,0.0631 0.35919,0.19086 0.0241,0.0692 0.0379,0.65762 0.0379,1.61944 v 1.51073 h 0.65254 0.65255 l 0.11002,0.11002 c 0.0982,0.0982 0.10804,0.1275 0.0917,0.2722 -0.0349,0.30985 -0.0134,0.30399 -1.10633,0.30121 -0.59815,-0.002 -0.98993,-0.0169 -1.03935,-0.0408 z m 2.66034,0.0195 c -0.0298,-0.012 -0.0826,-0.0466 -0.11732,-0.0769 -0.0586,-0.0511 -0.0632,-0.18674 -0.0632,-1.87517 v -1.82014 l 0.10551,-0.10552 c 0.0865,-0.0865 0.13589,-0.10552 0.27431,-0.10552 0.34748,0 0.42234,0.0802 0.90288,0.96698 0.15371,0.28366 0.2967,0.51 0.31776,0.50298 0.0211,-0.007 0.17967,-0.27159 0.35248,-0.58794 0.17281,-0.31635 0.36942,-0.63889 0.43691,-0.71675 0.1133,-0.13071 0.13978,-0.14281 0.345,-0.15766 0.20933,-0.0151 0.22868,-0.01 0.33203,0.0937 l 0.10975,0.10975 v 1.82014 c 0,1.7498 -0.003,1.82256 -0.0694,1.88294 -0.0795,0.072 -0.31543,0.11274 -0.45277,0.0783 -0.0513,-0.0129 -0.12542,-0.0555 -0.16462,-0.0947 -0.0678,-0.0677 -0.0713,-0.12399 -0.0713,-1.13618 0,-0.61992 -0.0138,-1.06489 -0.033,-1.06489 -0.0182,0 -0.15218,0.21347 -0.29781,0.47437 -0.21566,0.38638 -0.28622,0.48343 -0.38037,0.52319 -0.12955,0.0547 -0.24462,0.0271 -0.34102,-0.0819 -0.0327,-0.037 -0.16818,-0.27443 -0.30098,-0.52757 -0.13279,-0.25314 -0.25626,-0.46025 -0.27437,-0.46025 -0.0191,0 -0.0329,0.46662 -0.0329,1.11345 0,1.07046 -0.003,1.11599 -0.0728,1.17929 -0.0742,0.0671 -0.39738,0.10943 -0.50481,0.0661 z m 3.57373,-0.0169 c -0.12251,-0.0489 -0.2527,-0.17589 -0.2527,-0.24658 0,-0.13778 1.04753,-3.51223 1.11424,-3.58937 0.0804,-0.0929 0.26507,-0.16649 0.41804,-0.16649 0.16146,0 0.4091,0.0982 0.45262,0.17957 0.0368,0.0688 0.12014,0.33051 0.50019,1.5712 0.13989,0.45664 0.32834,1.07112 0.41879,1.36552 0.16678,0.54282 0.18222,0.62184 0.14196,0.72675 -0.0339,0.0884 -0.28095,0.19996 -0.44272,0.19996 -0.18865,0 -0.25746,-0.0897 -0.36517,-0.47594 -0.046,-0.16509 -0.0993,-0.32048 -0.1184,-0.34529 -0.0402,-0.0523 -1.05814,-0.0647 -1.13824,-0.0139 -0.0261,0.0166 -0.0945,0.19067 -0.15193,0.3869 -0.0576,0.19688 -0.13246,0.37727 -0.16697,0.40251 -0.0734,0.0537 -0.28144,0.0563 -0.40971,0.005 z m 1.69522,-1.46654 c -0.005,-0.10718 -0.38574,-1.34948 -0.41303,-1.3493 -0.027,1.8e-4 -0.27287,0.80263 -0.39679,1.29515 -0.0203,0.0807 -0.0178,0.0812 0.39538,0.0812 0.2287,0 0.4152,-0.0122 0.41444,-0.0271 z m -9.07438,-5.49302 -2.34325,-2.34346 0.25859,-1.7988 c 0.14222,-0.98935 0.35503,-2.47186 0.47291,-3.29448 l 0.21432,-1.49568 1.87944,-1.87943 1.87943,-1.87943 2.32836,2.32815 c 1.2806,1.28049 2.32836,2.34453 2.32836,2.36453 0,0.02 -0.6254,0.66162 -1.38978,1.42581 -0.76437,0.76419 -1.38977,1.40539 -1.38977,1.42489 0,0.0195 0.84012,0.87616 1.86694,1.90369 1.16093,1.16173 1.85372,1.88056 1.83198,1.90086 -0.0617,0.0576 -5.54457,3.68681 -5.5699,3.68681 -0.0134,0 -1.07885,-1.05456 -2.36763,-2.34346 z"
         id="path868"
         inkscape:connector-curvature="0" />
      <path
         style="fill:#00d0b1;stroke-width:0.03609816"
         d="m 105.8221,120.9497 c -0.38738,-0.10831 -0.64855,-0.35387 -0.74609,-0.70148 -0.0487,-0.17354 -0.0579,-0.43568 -0.0579,-1.65474 v -1.44854 l 0.0802,-0.0562 c 0.11227,-0.0786 0.43152,-0.0744 0.52853,0.007 0.0736,0.0618 0.0755,0.0943 0.0852,1.471 0.009,1.30619 0.015,1.41796 0.0795,1.54807 0.0939,0.18922 0.31433,0.28941 0.58696,0.2668 0.22555,-0.0187 0.36197,-0.10393 0.45341,-0.28326 0.0568,-0.11146 0.0631,-0.26141 0.0632,-1.50617 l 7e-5,-1.3824 0.0886,-0.0886 c 0.15356,-0.15357 0.574,-0.10359 0.61845,0.0735 0.0107,0.0426 0.0138,0.72618 0.007,1.51896 -0.01,1.117 -0.0239,1.46985 -0.0626,1.56776 -0.12473,0.31607 -0.33961,0.52534 -0.65829,0.6411 -0.21722,0.0789 -0.82566,0.0944 -1.0661,0.0272 z m -3.764,-0.0547 c -0.0703,-0.0703 -0.0722,-0.12032 -0.0722,-1.89515 0,-1.79811 0.001,-1.82398 0.0751,-1.89803 0.0725,-0.0725 0.10423,-0.0747 0.91148,-0.063 0.77845,0.0112 0.84665,0.0175 0.98421,0.091 0.31954,0.1707 0.46516,0.44111 0.46277,0.85932 -0.002,0.32682 -0.0621,0.49784 -0.24524,0.69655 l -0.14854,0.16114 0.0901,0.0575 c 0.32026,0.20421 0.41196,0.4355 0.39152,0.98758 -0.0168,0.45368 -0.12259,0.71538 -0.35403,0.87577 -0.2612,0.18102 -0.3553,0.19629 -1.21981,0.198 -0.7562,10e-4 -0.8074,-0.003 -0.87538,-0.0706 z m 1.49421,-0.5962 c 0.18245,-0.0866 0.254,-0.2435 0.25484,-0.55894 0.001,-0.50342 -0.12772,-0.61367 -0.71846,-0.61367 h -0.38082 v 0.61367 0.61367 h 0.36455 c 0.25099,0 0.40048,-0.017 0.47989,-0.0547 z m 0.0416,-1.86764 c 0.10855,-0.12631 0.14545,-0.32088 0.0936,-0.49381 -0.0712,-0.23751 -0.14104,-0.27152 -0.58624,-0.28535 l -0.39339,-0.0122 v 0.45762 0.45761 l 0.40028,-0.0122 c 0.3852,-0.0118 0.4035,-0.016 0.48572,-0.11163 z m 4.72562,2.44744 -0.0886,-0.0886 v -1.79014 -1.79014 l 0.0886,-0.0886 c 0.0709,-0.0709 0.1254,-0.0886 0.27238,-0.0886 0.14699,0 0.20151,0.0177 0.27238,0.0886 l 0.0886,0.0886 v 1.57191 1.57191 h 0.66946 c 0.66265,0 0.67036,9e-4 0.75806,0.0886 0.10462,0.10461 0.12026,0.3194 0.0324,0.44483 -0.0557,0.0795 -0.0646,0.0802 -1.03044,0.0802 h -0.97424 z m 2.65486,0.0439 -0.0902,-0.0477 -0.009,-1.83223 -0.009,-1.83223 0.0889,-0.0889 c 0.073,-0.073 0.12458,-0.0889 0.28786,-0.0889 0.28921,0 0.37674,0.0933 0.77613,0.82691 0.18361,0.33727 0.35501,0.63079 0.38089,0.65227 0.0527,0.0438 0.0477,0.0515 0.50462,-0.78184 0.15438,-0.28156 0.31933,-0.54825 0.36656,-0.59262 0.11485,-0.1079 0.44308,-0.13952 0.57191,-0.0551 0.15705,0.1029 0.16702,0.23309 0.1563,2.04148 -0.0113,1.91266 0.007,1.80024 -0.29452,1.83419 -0.13214,0.0149 -0.29096,-0.016 -0.39108,-0.0762 -0.004,-0.003 -0.0164,-0.5123 -0.0271,-1.13278 -0.0122,-0.71226 -0.0326,-1.12914 -0.0554,-1.13088 -0.0199,-0.002 -0.15372,0.20563 -0.29748,0.46032 -0.45438,0.80498 -0.56697,0.82044 -0.93328,0.12808 -0.3466,-0.65511 -0.38039,-0.70825 -0.41529,-0.65315 -0.0173,0.0273 -0.0316,0.55522 -0.032,1.17323 -4.8e-4,0.97371 -0.008,1.12988 -0.0569,1.1704 -0.0806,0.0669 -0.41244,0.0832 -0.52123,0.0257 z m 3.53393,-0.0378 c -0.0675,-0.0453 -0.12772,-0.11747 -0.1339,-0.16026 -0.006,-0.0428 0.16183,-0.64326 0.37339,-1.33439 0.72003,-2.35234 0.67413,-2.22122 0.80951,-2.31247 0.23006,-0.15506 0.67211,-0.0797 0.75554,0.12888 0.0344,0.086 0.18237,0.56312 0.86614,2.79297 0.10162,0.33139 0.18476,0.64126 0.18476,0.6886 0,0.13677 -0.15146,0.25084 -0.35961,0.27084 -0.11632,0.0112 -0.20109,10e-4 -0.23607,-0.0279 -0.0448,-0.0372 -0.13202,-0.28446 -0.25775,-0.73094 -0.016,-0.057 -0.0777,-0.0632 -0.62775,-0.0632 -0.70137,0 -0.63098,-0.0386 -0.75661,0.41513 -0.044,0.15883 -0.10516,0.31721 -0.13596,0.35196 -0.0824,0.0929 -0.32956,0.083 -0.48169,-0.0193 z m 1.78648,-1.35489 c 0.0307,-0.0496 -0.38598,-1.4889 -0.42715,-1.47571 -0.0437,0.014 -0.45747,1.43299 -0.43057,1.47652 0.0235,0.038 0.83422,0.0372 0.85772,-8.1e-4 z m -9.08974,-5.52667 -2.34325,-2.34346 0.25859,-1.7988 c 0.14222,-0.98935 0.35503,-2.47186 0.47291,-3.29448 l 0.21432,-1.49568 1.87944,-1.87943 1.87943,-1.87943 2.32836,2.32815 c 1.2806,1.28049 2.32836,2.34453 2.32836,2.36453 0,0.02 -0.6254,0.66162 -1.38978,1.42581 -0.76437,0.76419 -1.38977,1.40539 -1.38977,1.42489 0,0.0195 0.84012,0.87616 1.86694,1.90369 1.16093,1.16173 1.85372,1.88056 1.83198,1.90086 -0.0617,0.0576 -5.54457,3.68681 -5.5699,3.68681 -0.0134,0 -1.07885,-1.05456 -2.36763,-2.34346 z"
         id="path866"
         inkscape:connector-curvature="0" />
      <path
         style="fill:#5e5e5e;stroke-width:0.03609816"
         d="m 105.8221,120.9497 c -0.38738,-0.10831 -0.64855,-0.35387 -0.74609,-0.70148 -0.0487,-0.17354 -0.0579,-0.43568 -0.0579,-1.65474 v -1.44854 l 0.0802,-0.0562 c 0.11227,-0.0786 0.43152,-0.0744 0.52853,0.007 0.0736,0.0618 0.0755,0.0943 0.0852,1.471 0.009,1.30619 0.015,1.41796 0.0795,1.54807 0.0939,0.18922 0.31433,0.28941 0.58696,0.2668 0.22555,-0.0187 0.36197,-0.10393 0.45341,-0.28326 0.0568,-0.11146 0.0631,-0.26141 0.0632,-1.50617 l 7e-5,-1.3824 0.0886,-0.0886 c 0.15356,-0.15357 0.574,-0.10359 0.61845,0.0735 0.0107,0.0426 0.0138,0.72618 0.007,1.51896 -0.01,1.117 -0.0239,1.46985 -0.0626,1.56776 -0.12473,0.31607 -0.33961,0.52534 -0.65829,0.6411 -0.21722,0.0789 -0.82566,0.0944 -1.0661,0.0272 z m -3.764,-0.0547 c -0.0703,-0.0703 -0.0722,-0.12032 -0.0722,-1.89515 0,-1.79811 0.001,-1.82398 0.0751,-1.89803 0.0725,-0.0725 0.10423,-0.0747 0.91148,-0.063 0.77845,0.0112 0.84665,0.0175 0.98421,0.091 0.31954,0.1707 0.46516,0.44111 0.46277,0.85932 -0.002,0.32682 -0.0621,0.49784 -0.24524,0.69655 l -0.14854,0.16114 0.0901,0.0575 c 0.32026,0.20421 0.41196,0.4355 0.39152,0.98758 -0.0168,0.45368 -0.12259,0.71538 -0.35403,0.87577 -0.2612,0.18102 -0.3553,0.19629 -1.21981,0.198 -0.7562,10e-4 -0.8074,-0.003 -0.87538,-0.0706 z m 1.49421,-0.5962 c 0.18245,-0.0866 0.254,-0.2435 0.25484,-0.55894 0.001,-0.50342 -0.12772,-0.61367 -0.71846,-0.61367 h -0.38082 v 0.61367 0.61367 h 0.36455 c 0.25099,0 0.40048,-0.017 0.47989,-0.0547 z m 0.0416,-1.86764 c 0.10855,-0.12631 0.14545,-0.32088 0.0936,-0.49381 -0.0712,-0.23751 -0.14104,-0.27152 -0.58624,-0.28535 l -0.39339,-0.0122 v 0.45762 0.45761 l 0.40028,-0.0122 c 0.3852,-0.0118 0.4035,-0.016 0.48572,-0.11163 z m 4.72562,2.44744 -0.0886,-0.0886 v -1.79014 -1.79014 l 0.0886,-0.0886 c 0.0709,-0.0709 0.1254,-0.0886 0.27238,-0.0886 0.14699,0 0.20151,0.0177 0.27238,0.0886 l 0.0886,0.0886 v 1.57191 1.57191 h 0.66946 c 0.66265,0 0.67036,9e-4 0.75806,0.0886 0.10462,0.10461 0.12026,0.3194 0.0324,0.44483 -0.0557,0.0795 -0.0646,0.0802 -1.03044,0.0802 h -0.97424 z m 2.65486,0.0439 -0.0902,-0.0477 -0.009,-1.83223 -0.009,-1.83223 0.0889,-0.0889 c 0.073,-0.073 0.12458,-0.0889 0.28786,-0.0889 0.28921,0 0.37674,0.0933 0.77613,0.82691 0.18361,0.33727 0.35501,0.63079 0.38089,0.65227 0.0527,0.0438 0.0477,0.0515 0.50462,-0.78184 0.15438,-0.28156 0.31933,-0.54825 0.36656,-0.59262 0.11485,-0.1079 0.44308,-0.13952 0.57191,-0.0551 0.15705,0.1029 0.16702,0.23309 0.1563,2.04148 -0.0113,1.91266 0.007,1.80024 -0.29452,1.83419 -0.13214,0.0149 -0.29096,-0.016 -0.39108,-0.0762 -0.004,-0.003 -0.0164,-0.5123 -0.0271,-1.13278 -0.0122,-0.71226 -0.0326,-1.12914 -0.0554,-1.13088 -0.0199,-0.002 -0.15372,0.20563 -0.29748,0.46032 -0.45438,0.80498 -0.56697,0.82044 -0.93328,0.12808 -0.3466,-0.65511 -0.38039,-0.70825 -0.41529,-0.65315 -0.0173,0.0273 -0.0316,0.55522 -0.032,1.17323 -4.8e-4,0.97371 -0.008,1.12988 -0.0569,1.1704 -0.0806,0.0669 -0.41244,0.0832 -0.52123,0.0257 z m 3.53393,-0.0378 c -0.0675,-0.0453 -0.12772,-0.11747 -0.1339,-0.16026 -0.006,-0.0428 0.16183,-0.64326 0.37339,-1.33439 0.72003,-2.35234 0.67413,-2.22122 0.80951,-2.31247 0.23006,-0.15506 0.67211,-0.0797 0.75554,0.12888 0.0344,0.086 0.18237,0.56312 0.86614,2.79297 0.10162,0.33139 0.18476,0.64126 0.18476,0.6886 0,0.13677 -0.15146,0.25084 -0.35961,0.27084 -0.11632,0.0112 -0.20109,10e-4 -0.23607,-0.0279 -0.0448,-0.0372 -0.13202,-0.28446 -0.25775,-0.73094 -0.016,-0.057 -0.0777,-0.0632 -0.62775,-0.0632 -0.70137,0 -0.63098,-0.0386 -0.75661,0.41513 -0.044,0.15883 -0.10516,0.31721 -0.13596,0.35196 -0.0824,0.0929 -0.32956,0.083 -0.48169,-0.0193 z m 1.78648,-1.35489 c 0.0307,-0.0496 -0.38598,-1.4889 -0.42715,-1.47571 -0.0437,0.014 -0.45747,1.43299 -0.43057,1.47652 0.0235,0.038 0.83422,0.0372 0.85772,-8.1e-4 z"
         id="path864"
         inkscape:connector-curvature="0" />
      <path
         style="fill:#050505;stroke-width:0.03609816"
         d="m 105.86646,120.91651 c -0.24085,-0.0595 -0.37036,-0.13228 -0.5309,-0.29824 -0.25753,-0.26623 -0.26025,-0.28558 -0.27339,-1.94318 l -0.0117,-1.47996 0.0781,-0.0632 c 0.10326,-0.0836 0.36258,-0.0836 0.46254,-7e-5 0.074,0.0619 0.0757,0.0925 0.0852,1.471 0.009,1.33334 0.0135,1.41431 0.0819,1.5304 0.11633,0.19748 0.24222,0.26927 0.5011,0.28575 0.27293,0.0174 0.45146,-0.0521 0.57354,-0.22326 0.0793,-0.11115 0.0808,-0.13493 0.0986,-1.56407 0.014,-1.12328 0.0286,-1.46179 0.065,-1.49807 0.0281,-0.0281 0.13429,-0.0469 0.26462,-0.0469 0.17383,0 0.22802,0.0141 0.26893,0.0701 0.0421,0.0575 0.0511,0.30626 0.0506,1.38978 -6.9e-4,1.43865 -0.0268,1.6994 -0.19621,1.95532 -0.24982,0.37749 -0.92347,0.56152 -1.51783,0.41463 z m -3.76323,-0.0396 -0.0812,-0.0582 v -1.82007 -1.82008 l 0.0886,-0.0581 c 0.0761,-0.0499 0.19962,-0.0563 0.87648,-0.046 0.76237,0.0117 0.79369,0.0151 0.96695,0.10432 0.10828,0.0558 0.22199,0.15329 0.28768,0.24674 0.0962,0.13688 0.11009,0.18955 0.12148,0.46135 0.0175,0.41727 -0.0386,0.60061 -0.24486,0.80112 l -0.16394,0.15933 0.0897,0.0572 c 0.18048,0.1151 0.35331,0.31643 0.39235,0.45705 0.0581,0.20945 0.0491,0.68498 -0.0176,0.92262 -0.0719,0.25618 -0.21556,0.43456 -0.43845,0.54432 -0.16191,0.0797 -0.21696,0.0851 -0.98371,0.0955 -0.70111,0.01 -0.82332,0.003 -0.89343,-0.0472 z m 1.50053,-0.56055 c 0.18088,-0.11029 0.27243,-0.34735 0.25082,-0.64947 -0.0327,-0.45735 -0.17512,-0.5755 -0.72762,-0.60369 -0.50736,-0.0259 -0.49129,-0.0474 -0.49129,0.65826 0,0.30469 0.01,0.57969 0.0219,0.61109 0.0182,0.0474 0.0906,0.0571 0.42415,0.057 0.34007,-1e-4 0.42075,-0.0114 0.52202,-0.0731 z m -0.061,-1.78816 c 0.0608,-0.0314 0.13213,-0.11107 0.16065,-0.17933 0.10804,-0.25858 0.0317,-0.58277 -0.16065,-0.68223 -0.15815,-0.0818 -0.85374,-0.0814 -0.88517,5.5e-4 -0.0121,0.0314 -0.0219,0.22501 -0.0219,0.43023 0,0.20522 0.01,0.39882 0.0219,0.43022 0.0314,0.0819 0.72702,0.0823 0.88517,5.6e-4 z m 4.84122,2.36558 -0.0815,-0.0328 0.009,-1.86912 0.009,-1.86912 0.13537,-0.0334 c 0.0831,-0.0205 0.18767,-0.0205 0.27074,0 l 0.13537,0.0334 0.019,1.62441 c 0.0104,0.89343 0.0226,1.62848 0.0271,1.63345 0.004,0.005 0.29643,0.009 0.64884,0.01 0.3524,2.9e-4 0.67531,0.01 0.71756,0.0211 0.14529,0.039 0.20409,0.29335 0.10162,0.43964 -0.0557,0.0795 -0.0649,0.0802 -0.98367,0.0779 -0.51012,-10e-4 -0.96418,-0.017 -1.00903,-0.035 z m 2.62647,-0.009 -0.0903,-0.0456 -0.009,-1.79613 -0.009,-1.79613 0.0889,-0.0889 c 0.0675,-0.0675 0.12626,-0.0886 0.244,-0.0877 0.28431,0.002 0.33358,0.0546 0.71364,0.75678 0.33787,0.62423 0.42358,0.75806 0.48545,0.75806 0.0277,0 0.1673,-0.21523 0.31031,-0.4783 0.38206,-0.70283 0.54367,-0.95534 0.63933,-0.99893 0.13914,-0.0634 0.35109,-0.0467 0.45613,0.0359 l 0.0951,0.0748 v 1.80024 1.80024 l -0.0802,0.0562 c -0.0966,0.0676 -0.30114,0.0722 -0.42515,0.01 l -0.0902,-0.0456 -0.0181,-1.16916 c -0.0128,-0.82695 -0.0301,-1.17316 -0.0591,-1.18282 -0.0226,-0.008 -0.18404,0.24044 -0.35881,0.55101 -0.46376,0.82413 -0.50129,0.82261 -0.96961,-0.0392 -0.17222,-0.31693 -0.31541,-0.5402 -0.34645,-0.5402 -0.045,0 -0.0556,0.17696 -0.0709,1.1902 l -0.0181,1.19019 -0.0902,0.0456 c -0.11531,0.0583 -0.2818,0.0583 -0.39708,-1e-5 z m 3.55009,-0.006 c -0.20755,-0.0903 -0.22508,-0.002 0.40806,-2.05937 0.55131,-1.79164 0.50928,-1.6786 0.64536,-1.73546 0.16586,-0.0693 0.36977,-0.0647 0.52028,0.0118 0.14195,0.0721 0.10047,-0.0386 0.5983,1.59729 0.1722,0.56583 0.378,1.23706 0.45735,1.49162 0.0925,0.29674 0.13616,0.49513 0.12167,0.55287 -0.0359,0.14295 -0.37903,0.25101 -0.51769,0.16302 -0.0255,-0.0162 -0.0949,-0.19796 -0.1542,-0.4039 -0.0593,-0.20594 -0.12772,-0.38712 -0.15211,-0.40261 -0.0646,-0.041 -1.13818,-0.0356 -1.21616,0.006 -0.0586,0.0313 -0.1587,0.29926 -0.23209,0.6209 -0.0465,0.20376 -0.23229,0.26496 -0.47877,0.15772 z m 1.77799,-1.33377 c 0.0222,-0.0578 -0.37131,-1.49539 -0.42882,-1.56669 -0.0311,-0.0385 -0.0456,-0.0385 -0.0812,0 -0.0607,0.0657 -0.46345,1.53048 -0.43398,1.57817 0.0152,0.0246 0.19058,0.039 0.47435,0.039 0.3525,0 0.45444,-0.011 0.46962,-0.0505 z"
         id="path862"
         inkscape:connector-curvature="0" />
    </g>
    <flowRoot
       xml:space="preserve"
       id="flowRoot841"
       style="fill:black;fill-opacity:1;stroke:none;font-family:sans-serif;font-style:normal;font-weight:normal;font-size:40px;line-height:1.25;letter-spacing:0px;word-spacing:0px"><flowRegion
         id="flowRegion843"><rect
           id="rect845"
           width="51.51778"
           height="168.69548"
           x="446.48743"
           y="495.21497" /></flowRegion><flowPara
         id="flowPara847"></flowPara></flowRoot>    <g
       id="g915"
       transform="translate(1.3128221,-6.3983058e-4)">
      <path
         style="fill:#eea3d3;stroke-width:0.04429476"
         d="m 134.40218,122.50488 c -0.10976,-0.043 -0.45858,-0.22846 -0.77516,-0.41221 -1.58312,-0.91886 -5.25134,-3.038 -6.83746,-3.95 -1.26134,-0.72527 -1.4718,-0.8896 -1.6786,-1.3107 l -0.12119,-0.24677 v -5.33751 -5.33752 l 0.14683,-0.27067 c 0.0808,-0.14886 0.22029,-0.34174 0.31006,-0.42862 0.0898,-0.0869 0.55192,-0.38153 1.02698,-0.65478 0.47506,-0.27326 1.3521,-0.78004 1.94897,-1.12618 0.59687,-0.34613 1.22475,-0.70867 1.39528,-0.80562 0.17054,-0.097 1.02764,-0.59145 1.90468,-1.09886 0.87704,-0.50742 1.82531,-1.05569 2.10727,-1.21838 0.28197,-0.16269 0.60473,-0.318982 0.71726,-0.347317 0.27158,-0.06839 0.71114,-0.06444 0.98482,0.0088 0.12658,0.03389 0.8288,0.410767 1.63891,0.879597 1.55673,0.90091 4.09187,2.36531 6.03424,3.48563 0.77267,0.44566 1.32109,0.79149 1.43539,0.90517 0.10174,0.10117 0.24192,0.30503 0.31151,0.45301 l 0.12653,0.26905 -0.0116,5.33423 -0.0116,5.33424 -0.10369,0.21057 c -0.20144,0.40903 -0.40464,0.57005 -1.55736,1.23407 -1.8076,1.04125 -2.70666,1.55967 -5.22678,3.0139 -1.32774,0.76616 -2.49611,1.41689 -2.59639,1.44606 -0.27635,0.0804 -0.93065,0.0641 -1.16889,-0.0292 z m -1.31269,-9.26541 c 0.32161,-0.12033 0.61541,-0.38731 0.76784,-0.69776 l 0.12427,-0.2531 v -1.43958 -1.43958 h -0.33221 -0.33221 l -0.0222,1.37314 c -0.0205,1.27075 -0.0288,1.38435 -0.11073,1.52354 -0.15249,0.25888 -0.29932,0.33684 -0.63445,0.33684 -0.34807,0 -0.52284,-0.0972 -0.65571,-0.36456 -0.0739,-0.14881 -0.0854,-0.31398 -0.10513,-1.51797 l -0.0221,-1.35099 h -0.33221 -0.33221 l 1.8e-4,1.41744 c 1.8e-4,1.26686 0.009,1.43625 0.0796,1.59461 0.18288,0.40824 0.44145,0.66145 0.84558,0.82805 0.26141,0.10776 0.75937,0.10304 1.0617,-0.0101 z m 4.23649,-0.0697 c 0.36804,-0.17293 0.68529,-0.48915 0.85535,-0.85256 0.10785,-0.23047 0.13583,-0.35771 0.15367,-0.69877 l 0.0218,-0.417 -0.83661,0.0121 -0.83662,0.0121 v 0.31006 0.31006 l 0.4208,0.0222 c 0.39903,0.021 0.42156,0.0275 0.43538,0.12505 0.0208,0.14692 -0.39744,0.55737 -0.6347,0.62286 -0.42717,0.11791 -0.83056,0.0174 -1.17576,-0.29298 -0.34546,-0.31059 -0.41861,-0.48297 -0.41861,-0.98646 0,-0.47518 0.0717,-0.66702 0.35559,-0.95087 0.27293,-0.27292 0.47943,-0.35376 0.90657,-0.35486 0.45092,-10e-4 0.62813,0.0713 0.94424,0.3862 l 0.21339,0.21256 0.24621,-0.2366 0.24622,-0.23661 -0.14178,-0.16147 c -0.19926,-0.22694 -0.63492,-0.50703 -0.91558,-0.58862 -0.4949,-0.14387 -1.1694,-0.0631 -1.60492,0.1921 -0.31736,0.18598 -0.62404,0.52743 -0.79269,0.88255 -0.1248,0.2628 -0.15819,0.39337 -0.17677,0.69125 -0.0485,0.77708 0.24521,1.40936 0.84723,1.82399 0.38982,0.26848 0.63867,0.33784 1.15659,0.32239 0.38568,-0.0115 0.48019,-0.0307 0.73099,-0.14857 z m 4.17367,0.0678 c 1.56404,-0.52688 1.88104,-2.54627 0.55316,-3.5238 -0.67717,-0.49851 -1.68925,-0.49874 -2.366,-5.5e-4 -0.45503,0.33498 -0.72735,0.77194 -0.81614,1.3096 -0.16021,0.97011 0.42439,1.91905 1.3681,2.22073 0.35938,0.11488 0.90986,0.11227 1.26088,-0.006 z m -1.04203,-0.63363 c -0.5773,-0.21516 -0.88268,-0.65008 -0.89008,-1.26764 -0.003,-0.27887 0.0159,-0.37286 0.11991,-0.58534 0.38363,-0.78381 1.39574,-0.99634 2.04079,-0.42854 0.55875,0.49183 0.5959,1.40734 0.0786,1.93553 -0.11357,0.11595 -0.28622,0.24834 -0.38367,0.2942 -0.23033,0.10841 -0.74021,0.13576 -0.9655,0.0518 z m -12.31129,-0.16028 c 0.01,-0.70689 0.0219,-0.82705 0.086,-0.87482 0.0835,-0.0622 1.23603,-0.0791 1.32988,-0.0195 0.0391,0.0248 0.0578,0.27035 0.0664,0.87415 l 0.0121,0.83961 h 0.33221 0.33221 l 0.0115,-1.93977 0.0115,-1.93977 -0.34375,0.013 -0.34375,0.0129 -0.0221,0.70872 -0.0222,0.70872 -0.69652,0.0122 c -0.82378,0.0144 -0.73853,0.10589 -0.75443,-0.8095 l -0.0108,-0.62013 h -0.33221 -0.33221 l -0.0116,1.88253 c -0.006,1.03539 -0.002,1.90832 0.0104,1.93985 0.0159,0.0414 0.1116,0.0537 0.34378,0.0443 l 0.32177,-0.013 z"
         id="path929"
         inkscape:connector-curvature="0" />
      <path
         style="fill:#f372c5;stroke-width:0.04429476"
         d="m 134.55743,122.53243 c -0.0731,-0.0263 -1.41854,-0.78983 -2.98989,-1.69685 -1.57136,-0.90701 -3.51479,-2.0287 -4.31874,-2.49263 -0.80395,-0.46393 -1.53885,-0.89773 -1.63311,-0.96401 -0.22363,-0.15724 -0.49727,-0.58475 -0.55958,-0.87424 -0.0352,-0.16357 -0.0455,-1.71299 -0.0357,-5.3899 l 0.0137,-5.16034 0.14008,-0.26577 c 0.25076,-0.47578 0.1317,-0.39472 3.07129,-2.09093 0.71868,-0.41469 2.14387,-1.23816 3.16708,-1.82992 2.93636,-1.69821 2.97597,-1.72038 3.21257,-1.797765 0.15874,-0.05192 0.31455,-0.06701 0.53166,-0.05147 0.36921,0.02642 -0.10701,-0.233286 5.2476,2.861705 2.19259,1.26732 4.05734,2.36323 4.14388,2.43535 0.0865,0.0721 0.22607,0.25788 0.31006,0.41281 l 0.15272,0.2817 v 5.33752 5.33751 l -0.12693,0.2505 c -0.0698,0.13777 -0.20934,0.32922 -0.31006,0.42544 -0.11467,0.10954 -1.81098,1.11419 -4.53716,2.68716 -2.39471,1.38171 -4.42222,2.5407 -4.50557,2.57552 -0.1777,0.0743 -0.77634,0.0795 -0.97385,0.009 z m -1.32796,-9.30109 c 0.28845,-0.14845 0.6043,-0.48885 0.7115,-0.7668 0.0774,-0.20083 0.0849,-0.34699 0.0849,-1.6598 v -1.43958 h -0.37651 -0.3765 l -0.0221,1.39528 c -0.0199,1.25163 -0.0305,1.40897 -0.1034,1.52817 -0.14342,0.23455 -0.28736,0.31007 -0.591,0.31007 -0.31111,0 -0.46316,-0.0837 -0.6123,-0.33685 -0.082,-0.13918 -0.0902,-0.25278 -0.11073,-1.52353 l -0.0222,-1.37314 h -0.37651 -0.3765 v 1.43958 1.43958 l 0.12886,0.27908 c 0.15478,0.33521 0.46086,0.62865 0.79256,0.75985 0.33683,0.13323 0.93872,0.10823 1.2499,-0.0519 z m 4.09804,-0.002 c 0.44483,-0.21464 0.80623,-0.59959 0.95508,-1.01731 0.0787,-0.22076 0.16057,-0.86224 0.1246,-0.9759 -0.0228,-0.0721 -0.0952,-0.0775 -0.89636,-0.0664 l -0.87154,0.012 -0.0136,0.26393 c -0.024,0.46729 -0.0243,0.46694 0.43259,0.46694 0.21736,0 0.40715,0.0193 0.42176,0.043 0.0352,0.0569 -0.0755,0.26493 -0.20538,0.38613 -0.32352,0.30185 -0.79793,0.35732 -1.22609,0.14336 -1.15958,-0.57944 -0.8421,-2.33116 0.43911,-2.42283 0.40878,-0.0293 0.65008,0.0646 0.98409,0.38283 l 0.25668,0.24455 0.27387,-0.27388 0.27387,-0.27387 -0.24264,-0.24663 c -1.2835,-1.30463 -3.4983,-0.39199 -3.4983,1.44152 0,0.91532 0.56242,1.68802 1.43958,1.9778 0.11407,0.0377 0.34283,0.054 0.64227,0.0459 0.39761,-0.0108 0.50068,-0.0299 0.71037,-0.13103 z m 4.12079,0.0747 c 0.99083,-0.28923 1.62487,-1.2763 1.46288,-2.2774 -0.27319,-1.68826 -2.37236,-2.33467 -3.53736,-1.08929 -0.32086,0.343 -0.47738,0.6499 -0.5499,1.07822 -0.16617,0.98147 0.40588,1.91701 1.38829,2.27044 0.30007,0.10796 0.89814,0.11668 1.23609,0.018 z m -0.94367,-0.72426 c -0.35542,-0.11474 -0.73995,-0.4983 -0.83498,-0.8329 -0.0826,-0.29082 -0.0648,-0.71881 0.0396,-0.95498 0.1038,-0.23464 0.34349,-0.48258 0.59658,-0.6171 0.15159,-0.0806 0.25848,-0.0994 0.56358,-0.0994 0.4292,0 0.63515,0.0813 0.90198,0.35605 0.23079,0.23763 0.31062,0.43837 0.33044,0.83088 0.0209,0.41378 -0.059,0.66546 -0.29371,0.92526 -0.2562,0.28358 -0.50007,0.40112 -0.86588,0.41733 -0.17405,0.008 -0.37099,-0.004 -0.43764,-0.0251 z m -12.314,-0.0914 c 0.01,-0.7069 0.0218,-0.82706 0.086,-0.87482 0.0776,-0.0578 1.09005,-0.0813 1.2276,-0.0285 0.0603,0.0232 0.0701,0.13907 0.0701,0.83617 0,0.6417 0.0129,0.82001 0.0623,0.86103 0.0387,0.0321 0.18593,0.0468 0.38758,0.0387 l 0.32523,-0.0131 v -1.97111 -1.97112 l -0.32523,-0.0131 c -0.20165,-0.008 -0.34893,0.007 -0.38758,0.0387 -0.0487,0.0404 -0.0623,0.20151 -0.0623,0.73404 v 0.6823 l -0.67549,-0.0122 -0.6755,-0.0122 -0.0221,-0.70872 -0.0222,-0.70871 h -0.37651 -0.3765 l -0.0116,1.92682 c -0.006,1.05975 -0.002,1.95255 0.0104,1.98399 0.016,0.0418 0.12023,0.0537 0.38806,0.0443 l 0.36613,-0.0129 z"
         id="path927"
         inkscape:connector-curvature="0" />
      <path
         style="fill:#fc3bb3;stroke-width:0.04429476"
         d="m 134.66817,122.55703 c -0.0609,-0.0127 -0.1207,-0.0384 -0.13288,-0.057 -0.0122,-0.0186 -0.1021,-0.0744 -0.19981,-0.12392 -0.0977,-0.0495 -1.15415,-0.65612 -2.34762,-1.34802 -1.19348,-0.69189 -3.10366,-1.79519 -4.24484,-2.45178 -1.26763,-0.72935 -2.14166,-1.25991 -2.24654,-1.3637 -0.0944,-0.0934 -0.22711,-0.2828 -0.29489,-0.4208 l -0.12323,-0.25091 v -5.27201 -5.27201 l 0.14136,-0.28698 c 0.0778,-0.15784 0.20731,-0.35002 0.28791,-0.42707 0.0806,-0.077 0.71464,-0.46766 1.40896,-0.86804 3.33158,-1.92112 4.31308,-2.48797 5.33752,-3.0826 1.54476,-0.89665 2.25036,-1.29086 2.31071,-1.29098 0.0284,-6e-5 0.06,-0.025 0.0701,-0.05548 0.0252,-0.07548 0.79513,-0.07297 0.82034,0.0027 0.01,0.02899 0.0379,0.0527 0.0627,0.0527 0.0541,0 0.50486,0.255 2.71596,1.5365 2.17825,1.26246 5.39598,3.11976 5.83849,3.37001 0.43367,0.24526 0.62742,0.43777 0.78978,0.78474 l 0.12775,0.27298 -0.0116,5.28993 -0.0116,5.28993 -0.10229,0.20767 c -0.18217,0.36983 -0.38569,0.53869 -1.2487,1.036 -0.4507,0.25971 -1.13837,0.65661 -1.52817,0.882 -0.38979,0.22539 -1.22696,0.70867 -1.86038,1.07396 -0.63341,0.36529 -1.91622,1.10683 -2.85068,1.64786 -0.93445,0.54103 -1.73176,0.99575 -1.77179,1.01048 -0.04,0.0147 -0.0859,0.0464 -0.10191,0.0703 -0.032,0.0478 -0.6578,0.0804 -0.83461,0.0435 z m 1.98219,-7.88756 c -0.89531,-0.007 -2.36036,-0.007 -3.25566,0 -0.89531,0.007 -0.16279,0.0122 1.62783,0.0122 1.79062,0 2.52314,-0.005 1.62783,-0.0122 z m -3.45736,-1.40496 c 0.28554,-0.13035 0.60982,-0.44882 0.73678,-0.72358 0.0926,-0.20036 0.0961,-0.2627 0.0961,-1.6919 v -1.48387 l -0.38377,-0.0127 -0.38377,-0.0127 -0.0152,1.38588 c -0.0165,1.50882 -0.0236,1.55251 -0.28257,1.75623 -0.26879,0.21143 -0.76121,0.1383 -0.96175,-0.14284 -0.0966,-0.13546 -0.0994,-0.172 -0.11047,-1.46776 -0.006,-0.73086 -0.0218,-1.37446 -0.0345,-1.43021 -0.0222,-0.0974 -0.0383,-0.10087 -0.40942,-0.0886 l -0.38631,0.0128 -0.0117,1.37063 c -0.009,1.10379 10e-4,1.4144 0.0536,1.59548 0.25252,0.86864 1.25516,1.31571 2.09294,0.93324 z m 3.7431,0.10419 c 0.7526,-0.15849 1.33688,-0.78143 1.45708,-1.5535 0.0251,-0.16103 0.0394,-0.37951 0.0317,-0.48551 l -0.0138,-0.19274 h -0.8859 -0.88589 v 0.3765 0.37651 l 0.41727,0.0221 c 0.29305,0.0156 0.42309,0.0397 0.43682,0.0813 0.0108,0.0325 -0.0898,0.16509 -0.22353,0.29458 -0.19825,0.19203 -0.28832,0.24557 -0.48842,0.29035 -0.70961,0.1588 -1.44884,-0.47493 -1.44884,-1.24205 0,-0.449 0.27534,-0.91304 0.66977,-1.12882 0.20254,-0.1108 0.2881,-0.1306 0.57049,-0.13197 0.40222,-0.002 0.67491,0.11755 0.93031,0.40769 0.0913,0.10377 0.19414,0.18867 0.22845,0.18867 0.0343,0 0.1684,-0.10736 0.29799,-0.23858 0.28228,-0.28583 0.27816,-0.33446 -0.053,-0.62587 -0.64351,-0.56623 -1.52795,-0.70159 -2.27499,-0.34818 -0.33086,0.15652 -0.76552,0.57286 -0.94016,0.90052 -0.81555,1.53012 0.50706,3.36013 2.17467,3.00896 z m 4.61141,-0.0805 c 0.82772,-0.28478 1.40378,-1.08576 1.40378,-1.95189 0,-1.2505 -1.1779,-2.2549 -2.39885,-2.04553 -0.83308,0.14286 -1.5384,0.78472 -1.71791,1.56336 -0.11402,0.49457 -0.0201,1.1183 0.23177,1.5389 0.27896,0.46588 0.84818,0.86749 1.38279,0.97562 0.29227,0.0591 0.80106,0.0219 1.09842,-0.0805 z m -0.94992,-0.6961 c -0.19646,-0.0344 -0.58024,-0.29289 -0.73284,-0.49357 -0.18739,-0.24644 -0.25013,-0.4895 -0.22533,-0.87296 0.0248,-0.38271 0.13604,-0.61285 0.41518,-0.85856 0.49794,-0.4383 1.20775,-0.41536 1.67733,0.0542 0.61368,0.61368 0.46641,1.6483 -0.28966,2.03497 -0.24194,0.12373 -0.59231,0.1801 -0.84468,0.1359 z m -12.37905,0.6674 c 0.0148,-0.0385 0.0269,-0.42775 0.0269,-0.86493 v -0.79486 l 0.65335,0.0122 0.65335,0.0123 0.0221,0.8416 0.0221,0.8416 h 0.39865 0.39866 v -1.97111 -1.97112 h -0.39866 -0.39865 l -0.0221,0.70871 -0.0221,0.70872 h -0.64228 -0.64227 l -0.0108,-0.62013 c -0.0154,-0.88771 0.0188,-0.82541 -0.44452,-0.81008 l -0.3863,0.0128 -0.0116,1.92682 c -0.006,1.05975 -0.002,1.95174 0.01,1.98219 0.0147,0.0382 0.13673,0.0554 0.3944,0.0554 0.29941,0 0.37847,-0.0138 0.40004,-0.0701 z m 8.06639,-5.28727 c 0.25017,-0.0204 -0.21179,-0.0324 -1.24025,-0.0322 -0.9014,2.2e-4 -1.51931,0.0137 -1.37314,0.0298 0.3662,0.0405 2.12706,0.0421 2.61339,0.002 z"
         id="path925"
         inkscape:connector-curvature="0" />
      <path
         style="fill:#df55aa;stroke-width:0.04429476"
         d="m 134.53529,122.49856 c 0,-0.0244 0.0187,-0.0443 0.0417,-0.0443 0.0229,0 0.054,0.0199 0.0691,0.0443 0.0151,0.0244 -0.004,0.0443 -0.0417,0.0443 -0.038,0 -0.0691,-0.0199 -0.0691,-0.0443 z m 0.8416,0.0269 c 0,-0.01 0.0299,-0.0289 0.0664,-0.0429 0.0365,-0.014 0.0664,-0.006 0.0664,0.0174 0,0.0236 -0.0299,0.0429 -0.0664,0.0429 -0.0365,0 -0.0664,-0.008 -0.0664,-0.0174 z m 0.87408,-0.47533 c 0.0301,-0.0303 0.0658,-0.0439 0.0794,-0.0302 0.0136,0.0136 -0.011,0.0384 -0.0546,0.055 -0.0631,0.024 -0.0682,0.019 -0.0248,-0.0248 z m 0.58764,-0.3236 c 0,-0.0122 0.0399,-0.0435 0.0886,-0.0696 0.0487,-0.0261 0.0886,-0.0374 0.0886,-0.0253 0,0.0122 -0.0399,0.0435 -0.0886,0.0696 -0.0487,0.0261 -0.0886,0.0374 -0.0886,0.0253 z m -2.17044,-0.61586 c -0.16654,-0.0384 -0.57295,-0.24665 -1.28455,-0.65834 -0.57251,-0.33123 -1.35985,-0.78678 -1.74964,-1.01233 -0.8512,-0.49254 -1.60892,-0.92933 -3.34247,-1.92678 -0.74734,-0.43 -1.37851,-0.82366 -1.47717,-0.9213 -0.0948,-0.0938 -0.23508,-0.30305 -0.31185,-0.46509 l -0.13959,-0.29462 v -4.4747 -4.4747 l 0.14149,-0.28699 c 0.0778,-0.15784 0.21735,-0.36073 0.31006,-0.45087 0.0956,-0.0929 1.13723,-0.72341 2.40547,-1.45598 1.23028,-0.71065 2.8901,-1.66945 3.68849,-2.13066 0.79838,-0.46122 1.53341,-0.86744 1.6334,-0.90272 0.2088,-0.0737 0.69502,-0.0841 0.92626,-0.0199 0.0867,0.0241 0.6747,0.34082 1.30669,0.70387 4.81819,2.76782 6.30521,3.64125 6.46814,3.79919 0.0995,0.0964 0.239,0.29374 0.31006,0.43846 l 0.1292,0.26313 v 4.54021 4.54021 l -0.15057,0.27766 c -0.0828,0.15271 -0.22233,0.34233 -0.31006,0.42138 -0.0877,0.079 -0.89701,0.57003 -1.79841,1.09107 -0.9014,0.52105 -2.53311,1.46471 -3.62603,2.09703 -1.09292,0.63232 -2.06962,1.18601 -2.17045,1.23042 -0.24849,0.10946 -0.66181,0.14064 -0.95847,0.0723 z m 1.98219,-6.44118 c -0.89531,-0.007 -2.36036,-0.007 -3.25566,0 -0.89531,0.007 -0.16279,0.0122 1.62783,0.0122 1.79062,0 2.52314,-0.005 1.62783,-0.0122 z m -3.45736,-1.40496 c 0.28554,-0.13035 0.60982,-0.44882 0.73678,-0.72358 0.0926,-0.20036 0.0961,-0.2627 0.0961,-1.6919 v -1.48387 l -0.38377,-0.0127 -0.38377,-0.0127 -0.0152,1.38588 c -0.0165,1.50882 -0.0236,1.55251 -0.28257,1.75623 -0.26879,0.21143 -0.76121,0.1383 -0.96175,-0.14284 -0.0966,-0.13546 -0.0994,-0.172 -0.11047,-1.46776 -0.006,-0.73086 -0.0218,-1.37446 -0.0345,-1.43021 -0.0222,-0.0974 -0.0383,-0.10087 -0.40942,-0.0886 l -0.38631,0.0128 -0.0117,1.37063 c -0.009,1.10379 10e-4,1.4144 0.0536,1.59548 0.25252,0.86864 1.25516,1.31571 2.09294,0.93324 z m 3.7431,0.10419 c 0.7526,-0.15849 1.33688,-0.78143 1.45708,-1.5535 0.0251,-0.16103 0.0394,-0.37951 0.0317,-0.48551 l -0.0138,-0.19274 h -0.8859 -0.88589 v 0.3765 0.37651 l 0.41727,0.0221 c 0.29305,0.0156 0.42309,0.0397 0.43682,0.0813 0.0108,0.0325 -0.0898,0.16509 -0.22353,0.29458 -0.19825,0.19203 -0.28832,0.24557 -0.48842,0.29035 -0.70961,0.1588 -1.44884,-0.47493 -1.44884,-1.24205 0,-0.449 0.27534,-0.91304 0.66977,-1.12882 0.20254,-0.1108 0.2881,-0.1306 0.57049,-0.13197 0.40222,-0.002 0.67491,0.11755 0.93031,0.40769 0.0913,0.10377 0.19414,0.18867 0.22845,0.18867 0.0343,0 0.1684,-0.10736 0.29799,-0.23858 0.28228,-0.28583 0.27816,-0.33446 -0.053,-0.62587 -0.64351,-0.56623 -1.52795,-0.70159 -2.27499,-0.34818 -0.33086,0.15652 -0.76552,0.57286 -0.94016,0.90052 -0.81555,1.53012 0.50706,3.36013 2.17467,3.00896 z m 4.61141,-0.0805 c 0.82772,-0.28478 1.40378,-1.08576 1.40378,-1.95189 0,-1.2505 -1.1779,-2.2549 -2.39885,-2.04553 -0.83308,0.14286 -1.5384,0.78472 -1.71791,1.56336 -0.11402,0.49457 -0.0201,1.1183 0.23177,1.5389 0.27896,0.46588 0.84818,0.86749 1.38279,0.97562 0.29227,0.0591 0.80106,0.0219 1.09842,-0.0805 z m -0.94992,-0.6961 c -0.19646,-0.0344 -0.58024,-0.29289 -0.73284,-0.49357 -0.18739,-0.24644 -0.25013,-0.4895 -0.22533,-0.87296 0.0248,-0.38271 0.13604,-0.61285 0.41518,-0.85856 0.49794,-0.4383 1.20775,-0.41536 1.67733,0.0542 0.61368,0.61368 0.46641,1.6483 -0.28966,2.03497 -0.24194,0.12373 -0.59231,0.1801 -0.84468,0.1359 z m -12.37905,0.6674 c 0.0148,-0.0385 0.0269,-0.42775 0.0269,-0.86493 v -0.79486 l 0.65335,0.0122 0.65335,0.0123 0.0221,0.8416 0.0221,0.8416 h 0.39865 0.39866 v -1.97111 -1.97112 h -0.39866 -0.39865 l -0.0221,0.70871 -0.0221,0.70872 h -0.64228 -0.64227 l -0.0108,-0.62013 c -0.0154,-0.88771 0.0188,-0.82541 -0.44452,-0.81008 l -0.3863,0.0128 -0.0116,1.92682 c -0.006,1.05975 -0.002,1.95174 0.01,1.98219 0.0147,0.0382 0.13673,0.0554 0.3944,0.0554 0.29941,0 0.37847,-0.0138 0.40004,-0.0701 z m 8.06639,-5.28727 c 0.25017,-0.0204 -0.21179,-0.0324 -1.24025,-0.0322 -0.9014,2.2e-4 -1.51931,0.0137 -1.37314,0.0298 0.3662,0.0405 2.12706,0.0421 2.61339,0.002 z m 5.16034,11.09663 c 0,-0.0122 0.0399,-0.0435 0.0886,-0.0696 0.0487,-0.0261 0.0886,-0.0374 0.0886,-0.0253 0,0.0122 -0.0399,0.0435 -0.0886,0.0696 -0.0487,0.0261 -0.0886,0.0375 -0.0886,0.0253 z m 0.25396,-0.16365 c 0.03,-0.0303 0.0658,-0.0439 0.0794,-0.0302 0.0136,0.0136 -0.0109,0.0384 -0.0546,0.055 -0.0631,0.024 -0.0682,0.019 -0.0248,-0.0248 z m -13.4538,-0.0388 c -0.0399,-0.0258 -0.0454,-0.0432 -0.0137,-0.0436 0.029,-3.6e-4 0.0651,0.0192 0.0801,0.0436 0.034,0.055 0.0187,0.055 -0.0664,0 z m 13.64279,-0.0633 c 0,-0.0122 0.0399,-0.0435 0.0886,-0.0696 0.0487,-0.0261 0.0886,-0.0374 0.0886,-0.0253 0,0.0122 -0.0399,0.0435 -0.0886,0.0696 -0.0487,0.0261 -0.0886,0.0374 -0.0886,0.0253 z m -14.59773,-0.4928 c -0.0826,-0.0661 -0.082,-0.067 0.0137,-0.0206 0.0548,0.0266 0.0997,0.0576 0.0997,0.0689 0,0.0339 -0.023,0.0241 -0.11334,-0.0483 z m 15.52792,-0.0387 c 0,-0.0122 0.0399,-0.0435 0.0886,-0.0696 0.0487,-0.0261 0.0886,-0.0374 0.0886,-0.0253 0,0.0122 -0.0399,0.0435 -0.0886,0.0696 -0.0487,0.0261 -0.0886,0.0374 -0.0886,0.0253 z m -16.93168,-0.75931 c -0.16559,-0.0898 -0.15551,-0.12726 0.0111,-0.0411 0.0731,0.0378 0.13288,0.0782 0.13288,0.0897 0,0.0285 -0.005,0.0269 -0.14396,-0.0486 z m 18.26724,-0.0431 c 0.0403,-0.0411 0.0973,-0.0667 0.12684,-0.0568 0.0295,0.01 -0.003,0.0435 -0.0732,0.0747 -0.11873,0.0532 -0.12216,0.0521 -0.0537,-0.0179 z m 0.5697,-0.48525 c 0,-0.0244 0.0396,-0.1041 0.088,-0.17718 0.0484,-0.0731 0.088,-0.11295 0.088,-0.0886 0,0.0244 -0.0396,0.10409 -0.088,0.17718 -0.0484,0.0731 -0.088,0.11295 -0.088,0.0886 z m -19.49231,-0.11453 c -0.0272,-0.0508 -0.0411,-0.10073 -0.0309,-0.11093 0.0102,-0.0102 0.0413,0.0314 0.0691,0.0924 0.061,0.13397 0.0313,0.1484 -0.0382,0.0185 z m 19.69421,-10.87374 c -0.0163,-0.0649 -0.0211,-0.12657 -0.0106,-0.13701 0.0104,-0.0104 0.0323,0.0341 0.0486,0.099 0.0163,0.0649 0.0211,0.12656 0.0106,0.13701 -0.0104,0.0104 -0.0323,-0.0341 -0.0486,-0.099 z m -0.12319,-0.29582 c -0.0747,-0.11672 -0.12938,-0.2547 -0.10095,-0.2547 0.0109,0 0.0605,0.0797 0.11024,0.17718 0.0983,0.19261 0.0929,0.23724 -0.009,0.0775 z m -19.30322,-0.40973 c 0.0826,-0.0853 0.16022,-0.15503 0.17241,-0.15503 0.0122,0 -0.0455,0.0698 -0.12812,0.15503 -0.0826,0.0853 -0.16023,0.15503 -0.17241,0.15503 -0.0122,0 0.0455,-0.0698 0.12812,-0.15503 z m 19.04109,-0.0111 c -0.0551,-0.0703 -0.0535,-0.0718 0.0167,-0.0167 0.0738,0.0579 0.0973,0.0942 0.0608,0.0942 -0.009,0 -0.0441,-0.0349 -0.0775,-0.0775 z m -0.17718,-0.13289 c -0.0551,-0.0703 -0.0535,-0.0718 0.0167,-0.0167 0.0738,0.0579 0.0973,0.0942 0.0608,0.0942 -0.009,0 -0.0441,-0.0349 -0.0775,-0.0775 z m -18.64244,-0.0309 c 0,-0.0122 0.0598,-0.0531 0.13288,-0.0909 0.0731,-0.0378 0.13289,-0.0588 0.13289,-0.0466 0,0.0122 -0.0598,0.0531 -0.13289,0.0909 -0.0731,0.0378 -0.13288,0.0588 -0.13288,0.0466 z m 18.38233,-0.11697 c -0.0736,-0.0602 -0.081,-0.0752 -0.0221,-0.0448 0.14448,0.0747 0.22458,0.13601 0.17718,0.13568 -0.0244,-1.8e-4 -0.0941,-0.0411 -0.15503,-0.0909 z m -18.07227,-0.0594 c 0,-0.0122 0.0399,-0.0435 0.0886,-0.0696 0.0487,-0.0261 0.0886,-0.0375 0.0886,-0.0253 0,0.0122 -0.0399,0.0435 -0.0886,0.0695 -0.0487,0.0261 -0.0886,0.0375 -0.0886,0.0253 z m 16.89585,-0.62569 c -0.0826,-0.0661 -0.082,-0.067 0.0137,-0.0206 0.0548,0.0266 0.0997,0.0576 0.0997,0.0689 0,0.0339 -0.023,0.0241 -0.11334,-0.0483 z m -0.31007,-0.17718 c -0.0826,-0.0662 -0.082,-0.067 0.0137,-0.0206 0.0548,0.0266 0.0997,0.0576 0.0997,0.0689 0,0.0339 -0.023,0.0241 -0.11335,-0.0483 z m -0.8416,-0.48724 c -0.0826,-0.0662 -0.082,-0.067 0.0137,-0.0206 0.0548,0.0266 0.0997,0.0576 0.0997,0.0689 0,0.0339 -0.023,0.0241 -0.11335,-0.0483 z m -0.31006,-0.17718 c -0.0826,-0.0661 -0.082,-0.067 0.0137,-0.0206 0.0548,0.0266 0.0997,0.0576 0.0997,0.0689 0,0.0339 -0.023,0.0241 -0.11334,-0.0483 z m -11.44759,-0.83604 c 0,-0.0122 0.0399,-0.0435 0.0886,-0.0696 0.0487,-0.0261 0.0886,-0.0374 0.0886,-0.0253 0,0.0122 -0.0399,0.0435 -0.0886,0.0696 -0.0487,0.0261 -0.0886,0.0374 -0.0886,0.0253 z m 0.64228,-0.36766 c 0.0864,-0.0821 0.39165,-0.24949 0.35919,-0.19697 -0.0181,0.0294 -0.11636,0.0952 -0.21824,0.14622 -0.10189,0.0511 -0.16532,0.0739 -0.14095,0.0507 z m 8.50198,-0.12514 c -0.0826,-0.0661 -0.082,-0.067 0.0137,-0.0206 0.0548,0.0266 0.0997,0.0576 0.0997,0.0689 0,0.0339 -0.023,0.0241 -0.11335,-0.0483 z m -1.46172,-0.8416 c -0.0826,-0.0661 -0.082,-0.067 0.0137,-0.0206 0.0548,0.0266 0.0997,0.0576 0.0997,0.0689 0,0.0339 -0.023,0.0241 -0.11334,-0.0483 z m -2.32287,-1.28211 c -0.10934,-0.0625 -0.10948,-0.06332 -0.0111,-0.06487 0.0548,-8.63e-4 0.0997,0.0169 0.0997,0.03948 0,0.02257 0.0349,0.05016 0.0775,0.0613 0.0541,0.0141 0.0575,0.0213 0.0111,0.0238 -0.0366,0.002 -0.11628,-0.0249 -0.17718,-0.0597 z m -0.75301,-0.02354 c 0,-0.0236 0.0299,-0.0429 0.0664,-0.0429 0.0365,0 0.0664,0.0078 0.0664,0.01741 0,0.0096 -0.0299,0.02888 -0.0664,0.0429 -0.0365,0.014 -0.0664,0.006 -0.0664,-0.0174 z"
         id="path923"
         inkscape:connector-curvature="0" />
      <path
         style="fill:#cb308d;stroke-width:0.04429476"
         d="m 134.66817,121.11065 c -0.16654,-0.0384 -0.57295,-0.24665 -1.28455,-0.65834 -0.57251,-0.33123 -1.35985,-0.78678 -1.74964,-1.01233 -0.8512,-0.49254 -1.60892,-0.92933 -3.34247,-1.92678 -0.74734,-0.43 -1.37851,-0.82366 -1.47717,-0.9213 -0.0948,-0.0938 -0.23508,-0.30305 -0.31185,-0.46509 l -0.13959,-0.29462 v -4.4747 -4.4747 l 0.14149,-0.28699 c 0.0778,-0.15784 0.21735,-0.36073 0.31006,-0.45087 0.0956,-0.0929 1.13723,-0.72341 2.40547,-1.45598 1.23028,-0.71065 2.8901,-1.66945 3.68849,-2.13066 0.79838,-0.46122 1.53341,-0.86744 1.6334,-0.90272 0.2088,-0.0737 0.69502,-0.0841 0.92626,-0.0199 0.0867,0.0241 0.6747,0.34082 1.30669,0.70387 4.81819,2.76782 6.30521,3.64125 6.46814,3.79919 0.0995,0.0964 0.239,0.29374 0.31006,0.43846 l 0.1292,0.26313 v 4.54021 4.54021 l -0.15057,0.27766 c -0.0828,0.15271 -0.22233,0.34233 -0.31006,0.42138 -0.0877,0.079 -0.89701,0.57003 -1.79841,1.09107 -0.9014,0.52105 -2.53311,1.46471 -3.62603,2.09703 -1.09292,0.63232 -2.06962,1.18601 -2.17045,1.23042 -0.24849,0.10946 -0.66181,0.14064 -0.95847,0.0723 z m 5.53685,-4.77229 c 0,-0.21772 -0.1017,-0.28597 -0.27425,-0.18405 -0.11185,0.0661 -0.12705,0.0657 -0.20479,-0.005 -0.1113,-0.10073 -0.22968,-0.0514 -0.22968,0.0958 v 0.11585 l 0.0704,-0.10055 c 0.0559,-0.0798 0.0833,-0.0898 0.13289,-0.0487 0.0343,0.0285 0.0624,0.0793 0.0624,0.11285 0,0.0336 0.0299,0.061 0.0664,0.061 0.0373,0 0.0664,-0.0395 0.0664,-0.09 0,-0.10727 0.11783,-0.16427 0.19012,-0.092 0.0388,0.0388 0.0388,0.0713 -1.7e-4,0.13366 -0.0283,0.0453 -0.0403,0.12497 -0.0267,0.17701 0.0397,0.152 0.1468,0.0235 0.1468,-0.17623 z m -9.88642,-0.0578 c -0.0123,-0.12597 -0.0273,-0.1383 -0.16849,-0.1383 -0.13434,0 -0.15683,0.0155 -0.16851,0.11615 -0.009,0.0771 0.0118,0.12584 0.0616,0.14497 0.0628,0.0241 0.066,0.0178 0.0196,-0.0381 -0.0659,-0.0794 -0.0303,-0.20091 0.059,-0.20091 0.0826,0 0.13073,0.12925 0.0737,0.19795 -0.0557,0.0671 -0.014,0.11425 0.072,0.0813 0.0419,-0.0161 0.0598,-0.0731 0.051,-0.16305 z m 0.45792,-0.0293 c 0.017,-0.0831 0.0207,-0.16757 0.008,-0.18773 -0.0426,-0.0689 -0.12527,-0.002 -0.12527,0.1009 0,0.0566 -0.0249,0.11132 -0.0554,0.12159 -0.0326,0.011 -0.0554,-0.0193 -0.0554,-0.0736 0,-0.0912 -0.0464,-0.11968 -0.10297,-0.0631 -0.016,0.016 -0.007,0.0556 0.0197,0.088 0.0269,0.0324 0.038,0.0871 0.0248,0.12156 -0.0346,0.0901 0.003,0.11085 0.13752,0.075 0.0885,-0.0237 0.12545,-0.069 0.14868,-0.18258 z m 0.67421,0.13265 c 0.021,-0.019 0.0248,-0.0563 0.008,-0.0827 -0.0442,-0.0715 -0.15742,-0.0583 -0.15742,0.0183 0,0.065 -0.0503,0.0852 -0.17055,0.0687 -0.0329,-0.005 -0.0471,0.0124 -0.0315,0.0376 0.0298,0.0483 0.28503,0.0178 0.35101,-0.0419 z m 1.41254,0.0156 c 0.0791,0.0136 0.11893,0.0144 0.0885,0.002 -0.0787,-0.0325 -0.0687,-0.19031 0.014,-0.22206 0.1128,-0.0433 0.18264,0.0589 0.11466,0.16772 -0.0655,0.10481 -0.0318,0.17012 0.047,0.0913 0.0288,-0.0288 0.0983,-0.0524 0.1543,-0.0524 0.0644,0 0.10187,-0.0264 0.10187,-0.0719 0,-0.0536 0.0145,-0.0598 0.0571,-0.0245 0.0408,0.0339 0.0872,0.0323 0.16261,-0.006 0.2023,-0.10169 0.15378,-0.15394 -0.13128,-0.14137 -0.26907,0.0119 -0.2699,0.0115 -0.297,-0.12399 -0.0254,-0.12693 -0.0295,-0.12948 -0.0631,-0.0386 -0.047,0.12708 -0.224,0.19131 -0.43444,0.15766 -0.10057,-0.0161 -0.18037,-0.008 -0.19774,0.0202 -0.0489,0.0792 -0.15918,0.004 -0.15918,-0.10877 0,-0.13941 -0.11638,-0.13831 -0.14308,0.001 -0.0146,0.0764 0.002,0.11324 0.0575,0.12776 0.0429,0.0112 0.0847,0.0674 0.0929,0.12492 0.0108,0.0759 0.0512,0.11147 0.14771,0.12997 0.0731,0.014 0.15785,0.007 0.18836,-0.0163 0.0305,-0.023 0.12021,-0.0307 0.19933,-0.0171 z m -0.33904,-0.0378 c -0.0934,-0.0934 -0.0711,-0.17088 0.0547,-0.18938 0.12164,-0.0179 0.17639,0.1078 0.0862,0.19796 -0.0587,0.0587 -0.0746,0.0577 -0.14091,-0.009 z m 2.16684,0.0512 c 0.0463,-0.0338 0.10489,-0.0555 0.13028,-0.0481 0.0254,0.007 0.11077,0.0245 0.18974,0.0382 0.13348,0.0231 0.1398,0.0187 0.0897,-0.0615 -0.0823,-0.13179 0.0154,-0.21308 0.16185,-0.13469 l 0.10903,0.0584 -0.0971,0.0859 -0.097,0.0859 0.11074,-0.0249 c 0.0609,-0.0137 0.13407,-0.0252 0.16258,-0.0255 0.0285,-3.5e-4 0.0654,-0.0624 0.082,-0.13786 0.0349,-0.15905 -0.0304,-0.25845 -0.12089,-0.18392 -0.0844,0.0695 -0.37904,0.0836 -0.4416,0.021 -0.0785,-0.0785 -0.12504,-0.0666 -0.12504,0.0318 0,0.13331 -0.0599,0.13993 -0.2019,0.0223 -0.1232,-0.10202 -0.12593,-0.11132 -0.0501,-0.17029 0.0454,-0.0354 0.0614,-0.074 0.0368,-0.0892 -0.0423,-0.0262 -0.18301,0.0835 -0.1838,0.14328 -2.2e-4,0.0165 0.0637,0.0828 0.14216,0.14722 0.12048,0.099 0.13376,0.12777 0.0857,0.18562 -0.0312,0.0377 -0.0885,0.0563 -0.12728,0.0414 -0.0467,-0.0179 -0.0597,-0.01 -0.0384,0.0248 0.0417,0.0674 0.0799,0.0653 0.18258,-0.01 z m 1.18292,-0.0274 c -0.0933,-0.0869 -0.0919,-0.22116 0.002,-0.22116 0.0258,0 0.0372,-0.01 0.0253,-0.0217 -0.0119,-0.0119 -0.0749,0.003 -0.13992,0.0332 -0.12432,0.0577 -0.16205,0.16564 -0.0579,0.16564 0.0336,0 0.0858,0.0299 0.11617,0.0665 0.0303,0.0365 0.0764,0.0664 0.10236,0.0664 0.026,0 0.004,-0.04 -0.0482,-0.0889 z m 1.91488,0.0375 c 0.062,-0.0283 0.11282,-0.0781 0.11282,-0.11073 0,-0.0326 0.0223,-0.0593 0.0495,-0.0593 0.0276,0 0.0392,0.0391 0.0263,0.0885 -0.029,0.11068 0.03,0.15252 0.0985,0.0699 0.0352,-0.0425 0.0368,-0.0711 0.005,-0.0907 -0.0255,-0.0158 -0.0464,-0.0687 -0.0464,-0.11767 0,-0.069 -0.02,-0.0826 -0.0893,-0.0606 -0.0491,0.0156 -0.16111,0.005 -0.24889,-0.0243 -0.0947,-0.0312 -0.17097,-0.0361 -0.18755,-0.012 -0.0386,0.0562 -0.41916,0.0513 -0.45916,-0.006 -0.0192,-0.0275 -0.0328,-0.0149 -0.0332,0.031 -0.001,0.13573 -0.13564,0.0834 -0.2036,-0.0793 -0.036,-0.0862 -0.0849,-0.14487 -0.10848,-0.13027 -0.0636,0.0393 -0.0521,0.14122 0.019,0.16851 0.0341,0.0131 0.0855,0.0949 0.11417,0.18192 0.0572,0.17337 0.10728,0.19785 0.17117,0.0837 0.0386,-0.069 0.0476,-0.0685 0.123,0.007 0.0789,0.0789 0.0821,0.0782 0.10639,-0.0248 0.0173,-0.0732 0.0357,-0.0889 0.0594,-0.0505 0.0189,0.0306 0.0545,0.0432 0.0792,0.028 0.0246,-0.0152 0.0742,0.0144 0.11019,0.0657 0.0744,0.10618 0.14077,0.11541 0.30193,0.042 z m -0.20127,-0.0642 c -0.0441,-0.0532 -0.0413,-0.0796 0.0146,-0.13549 0.0812,-0.0812 0.16655,-0.0444 0.16655,0.0718 0,0.10748 -0.11216,0.14691 -0.1812,0.0637 z m 1.77582,0.0765 c 0,-0.0408 -0.18248,-0.10322 -0.21291,-0.0728 -0.01,0.01 -0.004,0.0387 0.0118,0.0647 0.0351,0.0568 0.20115,0.0635 0.20115,0.008 z m -7.22929,-0.12096 c 0.009,-0.062 -0.0129,-0.0867 -0.0775,-0.0867 -0.0966,0 -0.10636,0.0208 -0.0628,0.1343 0.0359,0.0935 0.12377,0.0636 0.14033,-0.0476 z m 4.4577,-0.0466 c 0.024,-0.0794 0.0141,-0.0921 -0.0574,-0.0734 -0.0499,0.0131 -0.0945,-0.003 -0.10569,-0.0369 -0.0106,-0.0327 -0.0101,3.1e-4 0.001,0.0734 0.0361,0.23405 0.0982,0.2482 0.16194,0.0369 z m 2.12923,0.0295 c 0.0531,0.0441 0.0711,0.0396 0.0953,-0.0235 0.0393,-0.1023 -0.10177,-0.21106 -0.20139,-0.1553 -0.0485,0.0271 -0.0967,0.0165 -0.15193,-0.0335 -0.0759,-0.0687 -0.0862,-0.0664 -0.16579,0.0363 -0.12465,0.16097 -0.091,0.23891 0.11422,0.26463 0.14351,0.018 0.18308,0.007 0.21041,-0.0604 0.0274,-0.0672 0.0459,-0.0724 0.0991,-0.0282 z m 2.29868,-0.004 c 0.0465,0.0386 0.0666,0.0353 0.0855,-0.0139 0.0387,-0.10077 -0.082,-0.17103 -0.23581,-0.13725 -0.0797,0.0175 -0.16106,0.01 -0.19553,-0.019 -0.0724,-0.0601 -0.20312,-0.0163 -0.20312,0.068 0,0.0752 0.053,0.0796 0.12237,0.0102 0.0391,-0.0392 0.0619,-0.0241 0.0949,0.0627 0.0539,0.14165 0.19101,0.17793 0.23715,0.0627 0.0262,-0.0654 0.0472,-0.0729 0.0945,-0.0336 z m -11.86627,0.004 c 0.0512,0 0.11694,0.0239 0.14618,0.0532 0.0743,0.0743 0.0662,0.002 -0.0244,-0.21863 -0.0426,-0.1037 -0.0974,-0.18855 -0.12181,-0.18855 -0.0244,0 -0.0792,0.0849 -0.12181,0.18855 -0.0906,0.22043 -0.0987,0.29297 -0.0244,0.21863 0.0292,-0.0292 0.095,-0.0532 0.14617,-0.0532 z m 0.61339,-0.0438 c 0.0146,-0.0728 0.0157,-0.1605 0.003,-0.19485 -0.0132,-0.0343 -0.002,-0.0758 0.0241,-0.0921 0.0684,-0.0423 0.0125,-0.11329 -0.0656,-0.0833 -0.0461,0.0177 -0.065,0.0947 -0.065,0.26384 0,0.25825 0.0611,0.32084 0.104,0.10648 z m 1.44335,-0.0448 c 0.0468,0 0.0926,-0.0422 0.10794,-0.0997 0.0444,-0.16575 0.032,-0.2104 -0.0586,-0.2104 -0.0595,0 -0.0995,0.0449 -0.12808,0.14395 -0.0229,0.0792 -0.0552,0.18383 -0.0719,0.23255 -0.0271,0.0794 -0.0251,0.0805 0.0195,0.0111 0.0274,-0.0426 0.0864,-0.0775 0.13106,-0.0775 z m 9.11365,0.036 c -0.0141,-0.0353 -0.0246,-0.0248 -0.0268,0.0268 -0.002,0.0467 0.009,0.0729 0.0233,0.0581 0.0147,-0.0147 0.0163,-0.0529 0.003,-0.0849 z m -6.25367,-0.036 c 0.0869,0.0721 0.0859,0.0258 -0.001,-0.0614 -0.0785,-0.0785 -0.19804,-0.0486 -0.19804,0.0494 0,0.0547 0.0123,0.0569 0.0664,0.012 0.053,-0.044 0.0799,-0.044 0.13288,0 z m 5.15707,-0.11467 c -0.0601,-0.0724 -0.0169,-0.15087 0.0834,-0.15178 0.0611,-5.5e-4 0.0634,-0.008 0.0125,-0.0402 -0.11268,-0.0713 -0.1812,-0.002 -0.1812,0.18392 0,0.15372 0.009,0.17032 0.067,0.12227 0.0498,-0.0413 0.0545,-0.0707 0.0183,-0.11422 z m -7.26175,0.015 c -0.001,-0.0935 -0.0753,-0.17915 -0.12725,-0.14702 -0.0865,0.0534 -0.0575,0.20238 0.0393,0.20238 0.0487,0 0.0883,-0.0249 0.0879,-0.0554 z m 7.68966,-1.39242 c 0.85056,-0.0167 1.49665,-0.0446 1.43574,-0.062 -0.1486,-0.0425 -11.90766,-0.0496 -12.09801,-0.007 -0.0885,0.0197 0.29298,0.0427 0.93573,0.0566 1.74516,0.0375 8.04357,0.0458 9.72654,0.0128 z m -6.41399,-1.44692 c 0.31016,-0.1595 0.56794,-0.42423 0.71172,-0.73091 l 0.11729,-0.25018 0.0134,-1.43228 c 0.01,-1.04865 -5.7e-4,-1.44906 -0.0387,-1.49495 -0.0689,-0.0831 -0.71777,-0.0883 -0.7858,-0.006 -0.0299,0.036 -0.0518,0.55169 -0.0608,1.43056 -0.0126,1.23551 -0.0221,1.38651 -0.094,1.49608 -0.25883,0.39468 -0.88125,0.38617 -1.11452,-0.0152 -0.084,-0.14447 -0.0916,-0.25016 -0.11225,-1.55032 l -0.0222,-1.39529 -0.36972,-0.0129 c -0.24274,-0.008 -0.39201,0.006 -0.43461,0.0409 -0.0551,0.0457 -0.0625,0.26742 -0.0491,1.47466 0.0187,1.68204 0.0236,1.70504 0.45128,2.13347 0.369,0.36964 0.61927,0.46656 1.15514,0.44737 0.32918,-0.0118 0.43945,-0.0353 0.63272,-0.13464 z m 4.06253,0.0173 c 0.37657,-0.14749 0.85555,-0.62857 0.99282,-0.99717 0.1065,-0.28595 0.19485,-0.90507 0.15297,-1.07193 l -0.0259,-0.10311 h -0.8985 c -0.77845,0 -0.90209,0.009 -0.92539,0.0701 -0.0485,0.12648 -0.0289,0.6632 0.0263,0.71838 0.0333,0.0333 0.19883,0.0532 0.44295,0.0532 0.21438,0 0.38979,0.0153 0.38979,0.034 0,0.0187 -0.0491,0.10625 -0.10908,0.19454 -0.14752,0.2171 -0.50314,0.39171 -0.79658,0.39115 -0.40784,-7.9e-4 -0.88487,-0.31349 -1.07041,-0.70166 -0.18133,-0.37937 -0.11754,-0.96983 0.14141,-1.30897 0.22653,-0.29669 0.48998,-0.4346 0.87771,-0.45948 0.41529,-0.0267 0.70121,0.089 0.9761,0.3947 0.10654,0.1185 0.21706,0.21546 0.2456,0.21546 0.0714,0 0.57685,-0.48751 0.57685,-0.55636 0,-0.0783 -0.33675,-0.41562 -0.58642,-0.58737 -0.75593,-0.52002 -1.85556,-0.42642 -2.53455,0.21575 -0.47236,0.44673 -0.68838,0.93232 -0.68838,1.54739 0,0.925 0.5484,1.68904 1.439,2.00485 0.32387,0.11484 1.01253,0.0881 1.37372,-0.0534 z m 4.19226,0.0441 c 1.24048,-0.38337 1.83117,-1.74477 1.25974,-2.9034 -0.64537,-1.30856 -2.33803,-1.58769 -3.38381,-0.55802 -1.31699,1.2967 -0.39416,3.53908 1.45965,3.54682 0.25944,0.001 0.47369,-0.0265 0.66442,-0.0854 z m -1.03028,-0.81571 c -0.50821,-0.18162 -0.81132,-0.63275 -0.80712,-1.20129 0.003,-0.36589 0.0767,-0.56336 0.30657,-0.81777 0.26719,-0.29575 0.46233,-0.37713 0.9043,-0.37713 0.42447,0 0.62184,0.0765 0.87231,0.33834 0.22626,0.23648 0.32156,0.49669 0.32267,0.88108 10e-4,0.40527 -0.12982,0.71041 -0.40675,0.94745 -0.31382,0.26862 -0.81317,0.36469 -1.19198,0.22932 z m -12.29032,0.83153 c 0.0605,-0.0232 0.0701,-0.14143 0.0701,-0.86291 0,-0.98508 -0.0778,-0.89219 0.73086,-0.87268 l 0.53154,0.0128 0.0221,0.81945 c 0.0122,0.4507 0.0383,0.84437 0.058,0.87483 0.0405,0.0625 0.6796,0.0779 0.77301,0.0186 0.0438,-0.0278 0.0533,-0.4629 0.0443,-2.02581 l -0.0115,-1.99037 -0.37567,-0.013 c -0.31516,-0.0109 -0.38472,-6.5e-4 -0.43188,0.0638 -0.0394,0.0539 -0.0562,0.27299 -0.0562,0.73403 v 0.65718 l -0.6312,-0.0123 -0.6312,-0.0123 -0.0222,-0.70872 -0.0222,-0.70872 -0.36972,-0.0129 c -0.23448,-0.008 -0.39246,0.006 -0.43188,0.0386 -0.0846,0.0703 -0.0933,3.88981 -0.009,3.97411 0.0553,0.0553 0.63498,0.0753 0.76268,0.0263 z m 12.62763,-5.38794 c -0.19403,-0.0694 -11.3864,-0.0703 -11.53879,-8.8e-4 -0.0834,0.038 1.34093,0.0502 5.78047,0.0494 4.2499,-7.2e-4 5.85418,-0.0142 5.75832,-0.0485 z"
         id="path921"
         inkscape:connector-curvature="0" />
      <path
         style="fill:#d01285;stroke-width:0.04429476"
         d="m 134.53068,121.06447 c -0.15417,-0.0551 -0.66203,-0.34471 -4.82352,-2.75068 -1.05975,-0.61269 -2.11199,-1.22033 -2.33831,-1.35029 -0.48024,-0.27579 -0.75627,-0.55766 -0.9039,-0.92305 l -0.10205,-0.25255 -0.0121,-4.31352 c -0.0135,-4.78944 -0.0221,-4.63176 0.27735,-5.08418 0.18679,-0.28223 0.29518,-0.36526 1.01933,-0.78094 0.88178,-0.50617 2.6687,-1.53862 5.13819,-2.96877 1.75114,-1.01413 1.82636,-1.04906 2.25904,-1.04906 0.12624,0 0.31785,0.0266 0.42579,0.0591 0.10794,0.0325 0.90343,0.46807 1.76776,0.96796 1.41139,0.81629 2.52547,1.45971 5.02649,2.90298 0.88329,0.50971 1.05552,0.65181 1.2706,1.04826 l 0.14684,0.27067 0.0119,4.4393 c 0.0115,4.30553 0.009,4.44671 -0.0746,4.68526 -0.13298,0.37836 -0.36239,0.65595 -0.72628,0.87884 -0.17514,0.10728 -1.43467,0.83847 -2.79895,1.62488 -1.36428,0.7864 -2.90906,1.67851 -3.43284,1.98246 -0.52379,0.30396 -1.0296,0.58002 -1.12402,0.61348 -0.21423,0.0759 -0.7942,0.0759 -1.00674,-9e-5 z m 5.66658,-4.47946 c 0.048,-0.061 0.1491,-0.12331 0.22469,-0.13843 0.0951,-0.019 0.13742,-0.0531 0.13742,-0.11053 0,-0.0457 0.0199,-0.0831 0.0443,-0.0831 0.0244,0 0.0443,0.0391 0.0443,0.0869 0,0.0644 0.0475,0.0997 0.18332,0.13624 0.20815,0.056 0.27734,0.0166 0.32706,-0.18633 0.0385,-0.15698 -0.14166,-0.29277 -0.28593,-0.21556 -0.0595,0.0319 -0.11884,0.0344 -0.16955,0.007 -0.0429,-0.023 -0.13259,-0.0313 -0.19932,-0.0185 -0.0918,0.0175 -0.12134,0.006 -0.12134,-0.0484 0,-0.0394 -0.0199,-0.0716 -0.0443,-0.0716 -0.0244,0 -0.0443,0.0324 -0.0443,0.072 0,0.0568 -0.0288,0.0662 -0.13651,0.0447 -0.0751,-0.015 -0.17727,-0.005 -0.22708,0.0212 -0.0657,0.0352 -0.12011,0.035 -0.19823,-5.8e-4 -0.0765,-0.0348 -0.1331,-0.0354 -0.1954,-0.002 -0.094,0.0503 -0.26156,0.0186 -0.26156,-0.0495 0,-0.0227 0.0287,-0.0413 0.0638,-0.0413 0.0351,0 0.0755,-0.0189 0.0898,-0.0421 0.038,-0.0615 -0.14241,-0.14464 -0.24392,-0.11243 -0.0754,0.0239 -0.0869,0.0685 -0.0869,0.33606 0,0.3459 0.0291,0.37931 0.28784,0.33077 0.10475,-0.0196 0.1752,-0.0674 0.21937,-0.14882 0.0367,-0.0676 0.0659,-0.0906 0.0668,-0.0526 9.7e-4,0.037 0.0523,0.14162 0.1141,0.23255 0.13503,0.19871 0.28258,0.21821 0.41145,0.0544 z m -0.93599,-0.27175 c -0.0462,-0.0462 0.0123,-0.10456 0.10476,-0.10456 0.0473,0 0.086,0.0299 0.086,0.0664 0,0.0657 -0.13599,0.0929 -0.19074,0.0381 z m 0.68647,-0.0193 c 0.009,-0.0262 0.0348,-0.0476 0.0579,-0.0476 0.0231,0 0.0492,0.0214 0.058,0.0476 0.009,0.0262 -0.0173,0.0476 -0.058,0.0476 -0.0406,0 -0.0667,-0.0214 -0.0579,-0.0476 z m -9.17283,0.15546 c 0.0218,-0.0135 0.0396,-0.12297 0.0396,-0.24335 0,-0.18932 -0.012,-0.21885 -0.0886,-0.21885 -0.0487,0 -0.0886,0.0221 -0.0886,0.049 0,0.0271 -0.0323,0.0367 -0.0721,0.0214 -0.0396,-0.0152 -0.0982,-0.006 -0.13005,0.0205 -0.0419,0.0348 -0.0843,0.0341 -0.15256,-0.002 -0.0673,-0.036 -0.13234,-0.0374 -0.22555,-0.005 -0.18903,0.0659 -0.37654,-0.0298 -0.19494,-0.0995 0.0943,-0.0362 0.0822,-0.10589 -0.0243,-0.13969 -0.16117,-0.0512 -0.22456,0.0536 -0.21021,0.34747 0.0148,0.30238 0.0883,0.37054 0.16572,0.15353 l 0.052,-0.14597 0.0702,0.13288 c 0.0386,0.0731 0.0907,0.14616 0.11569,0.16239 0.0511,0.0331 0.68205,0.006 0.74358,-0.0324 z m -0.68935,-0.14908 c -0.0303,-0.049 0.0396,-0.10182 0.0805,-0.0609 0.0421,0.0421 0.0343,0.10215 -0.0134,0.10215 -0.0229,0 -0.0531,-0.0185 -0.0672,-0.0412 z m 1.40412,0.14533 c 0.0645,-0.0398 0.0329,-0.18993 -0.0492,-0.23385 -0.0601,-0.0322 -0.0765,-0.0769 -0.06,-0.16352 0.0321,-0.16798 -0.10356,-0.26965 -0.21963,-0.1646 -0.0443,0.0401 -0.0806,0.11852 -0.0806,0.17421 0,0.0557 -0.0199,0.11357 -0.0443,0.12863 -0.0725,0.0448 -0.0503,0.23559 0.0332,0.28594 0.07,0.0422 0.33634,0.0252 0.42046,-0.0268 z m -0.32079,-0.14839 c 0,-0.0244 0.0199,-0.0443 0.0443,-0.0443 0.0244,0 0.0443,0.0199 0.0443,0.0443 0,0.0244 -0.0199,0.0443 -0.0443,0.0443 -0.0244,0 -0.0443,-0.0199 -0.0443,-0.0443 z m 1.55069,0.17697 c 0.0573,-0.0307 0.11835,-0.0285 0.19642,0.007 0.0813,0.037 0.14223,0.0384 0.21576,0.005 0.0654,-0.0298 0.12938,-0.0317 0.17669,-0.005 0.11357,0.0636 0.42953,-0.0442 0.42953,-0.14653 0,-0.0449 0.0199,-0.0816 0.0443,-0.0816 0.0244,0 0.0443,0.0399 0.0443,0.0886 0,0.0492 0.0295,0.0886 0.0664,0.0886 0.0366,0 0.0665,-0.0299 0.0665,-0.0664 0,-0.0994 0.0747,-0.0801 0.10258,0.0266 0.0337,0.12877 0.11889,0.0625 0.11889,-0.0925 0,-0.17096 -0.11235,-0.27751 -0.26018,-0.24675 -0.12456,0.0259 -0.28837,0.0299 -0.53713,0.0131 -0.12313,-0.008 -0.15794,-0.031 -0.16918,-0.11016 -0.0155,-0.10917 -0.14088,-0.13975 -0.14088,-0.0343 0,0.10949 -0.24244,0.20919 -0.36876,0.15164 -0.0789,-0.0359 -0.13231,-0.0355 -0.20189,0.002 -0.0827,0.0443 -0.1,0.0365 -0.13739,-0.0619 -0.059,-0.15509 -0.16593,-0.14089 -0.2368,0.0314 l -0.0592,0.14396 -0.0749,-0.14396 c -0.0779,-0.14968 -0.17916,-0.18806 -0.2194,-0.0832 -0.0128,0.0334 -0.0368,0.15067 -0.0533,0.26054 -0.0337,0.22449 0.0315,0.31535 0.11462,0.15994 l 0.052,-0.0971 0.0838,0.10689 0.0838,0.10689 0.084,-0.0997 c 0.1024,-0.12148 0.11976,-0.12321 0.14811,-0.0148 0.0197,0.0752 0.0987,0.11081 0.29005,0.13061 0.032,0.003 0.0957,-0.014 0.14142,-0.0385 z m -0.19781,-0.17391 c -0.0328,-0.053 0.0506,-0.10552 0.10956,-0.0691 0.0495,0.0306 0.017,0.11029 -0.045,0.11029 -0.0215,0 -0.0505,-0.0185 -0.0645,-0.0412 z m 0.42555,-8.5e-4 c 0.019,-0.0571 0.0798,-0.0674 0.0853,-0.0144 0.002,0.0177 -0.0206,0.0401 -0.0498,0.0498 -0.0292,0.01 -0.0452,-0.006 -0.0354,-0.0354 z m 1.75981,0.17782 c 0.048,-0.0257 0.14737,-0.0257 0.26176,-2e-5 0.11453,0.0257 0.2956,0.0257 0.47819,-2.2e-4 0.20435,-0.0289 0.31759,-0.0268 0.37174,0.007 0.0428,0.0268 0.11041,0.0362 0.15018,0.0209 0.10277,-0.0394 0.0904,-0.1634 -0.0163,-0.1634 -0.0492,0 -0.0886,-0.0295 -0.0886,-0.0664 0,-0.0369 0.0394,-0.0664 0.0886,-0.0664 0.10489,0 0.11899,-0.11174 0.0189,-0.15013 -0.0383,-0.0147 -0.10676,-0.007 -0.15212,0.0174 -0.11625,0.0622 -0.13259,0.0563 -0.13259,-0.048 0,-0.0807 -0.0178,-0.0883 -0.14396,-0.0612 -0.0792,0.017 -0.16389,0.0429 -0.18825,0.0576 -0.0919,0.0555 -0.35519,0.0369 -0.40301,-0.0285 -0.0557,-0.0762 -0.15067,-0.0361 -0.15067,0.0636 0,0.0388 -0.0311,0.061 -0.0738,0.0528 -0.0968,-0.0188 -0.13128,-0.12505 -0.0406,-0.12505 0.0998,0 0.0871,-0.11812 -0.0156,-0.14497 -0.0976,-0.0255 -0.26864,0.0776 -0.26864,0.1619 0,0.0309 0.0498,0.10303 0.11074,0.16024 0.13343,0.12535 0.14296,0.19594 0.0222,0.16436 -0.1174,-0.0307 -0.15105,0.0327 -0.0637,0.11999 0.0807,0.0807 0.12753,0.0864 0.23553,0.0286 z m 0.41063,-0.17782 c 0.01,-0.0292 0.0322,-0.0517 0.0498,-0.0498 0.053,0.005 0.0427,0.0662 -0.0144,0.0853 -0.0292,0.01 -0.0452,-0.006 -0.0354,-0.0354 z m 2.34098,0.17365 c 0.0365,0.003 0.34286,0.009 0.6807,0.0143 0.56691,0.008 0.61897,0.002 0.67549,-0.0782 0.0337,-0.0481 0.0612,-0.12234 0.0612,-0.16508 0,-0.0908 -0.19626,-0.23345 -0.26374,-0.19174 -0.0254,0.0157 -0.0905,-0.003 -0.14469,-0.0405 -0.14603,-0.10229 -0.24225,-0.0855 -0.27579,0.0481 -0.0221,0.088 -0.042,0.10452 -0.0801,0.0665 -0.0279,-0.0279 -0.11779,-0.0507 -0.19978,-0.0507 -0.18038,0 -0.32044,-0.0684 -0.32044,-0.15659 0,-0.0357 -0.0299,-0.0649 -0.0665,-0.0649 -0.0421,0 -0.0664,0.0424 -0.0664,0.1159 0,0.0986 -0.0149,0.11192 -0.0997,0.0892 -0.0548,-0.0147 -0.12458,-0.027 -0.15503,-0.0273 -0.0305,-3.5e-4 -0.0554,-0.0305 -0.0554,-0.067 0,-0.11075 -0.11495,-0.0744 -0.17526,0.0554 l -0.0566,0.12181 -0.0693,-0.14396 c -0.0865,-0.1798 -0.17674,-0.18402 -0.23703,-0.0111 -0.0564,0.16188 -0.0963,0.16732 -0.16248,0.0221 -0.0588,-0.12914 -0.14094,-0.14664 -0.14094,-0.03 0,0.14199 0.13928,0.49514 0.19528,0.49514 0.0297,0 0.0897,-0.0747 0.13322,-0.16597 l 0.0791,-0.16597 0.0851,0.16597 c 0.089,0.17357 0.12455,0.19532 0.19836,0.12151 0.0297,-0.0297 0.073,-0.0225 0.13067,0.022 0.0474,0.0366 0.12608,0.0551 0.1748,0.0413 0.0487,-0.0139 0.11849,-0.0229 0.15503,-0.0201 z m 0.17718,-0.19801 c 0,-0.0365 0.0199,-0.0664 0.0443,-0.0664 0.0244,0 0.0443,0.0299 0.0443,0.0664 0,0.0365 -0.0199,0.0664 -0.0443,0.0664 -0.0244,0 -0.0443,-0.0299 -0.0443,-0.0664 z m -8.59318,0.13289 c 0.0711,-0.0857 0.12876,-0.0839 0.22933,0.007 0.0447,0.0405 0.0935,0.0613 0.10847,0.0464 0.0838,-0.0838 -0.15882,-0.64088 -0.25356,-0.58232 -0.0624,0.0386 -0.21713,0.4023 -0.21713,0.51037 0,0.10176 0.0572,0.10971 0.13289,0.0185 z m 11.11798,-1.65884 c 1.79418,-0.0377 2.36744,-0.094 1.52494,-0.14983 -0.576,-0.0381 -12.77139,-0.0384 -13.30839,-2.2e-4 -0.78479,0.0557 -0.25257,0.11644 1.28559,0.14669 2.20687,0.0434 8.4978,0.0454 10.49786,0.003 z m -6.94232,-1.43132 c 0.33638,-0.15415 0.66072,-0.48948 0.79151,-0.81835 0.0984,-0.24746 0.10155,-0.29927 0.10304,-1.70739 10e-4,-1.24272 -0.008,-1.4586 -0.0649,-1.49664 -0.10598,-0.0709 -0.79214,-0.0322 -0.84254,0.0475 -0.024,0.038 -0.0423,0.63186 -0.0427,1.38563 -7.2e-4,1.39916 -0.0149,1.50939 -0.21673,1.68927 -0.13275,0.1183 -0.52246,0.14701 -0.70615,0.052 -0.28353,-0.14662 -0.29452,-0.20832 -0.30857,-1.73163 -0.0112,-1.21663 -0.021,-1.37945 -0.086,-1.42851 -0.0762,-0.0575 -0.57549,-0.0753 -0.75614,-0.0269 l -0.10178,0.0273 0.0132,1.53353 0.0132,1.53352 0.11874,0.22148 c 0.2009,0.37472 0.51275,0.64875 0.89262,0.78437 0.33348,0.11905 0.8531,0.0907 1.19319,-0.0652 z m 4.16616,-0.0466 c 0.74041,-0.36593 1.12646,-1.03872 1.08487,-1.89067 l -0.0141,-0.28792 h -0.93019 -0.93019 l -0.0127,0.4073 c -0.0147,0.46996 0.0247,0.52466 0.34132,0.47404 0.0971,-0.0155 0.24732,-0.015 0.33379,10e-4 0.1562,0.0293 0.15681,0.0303 0.093,0.15378 -0.17373,0.33595 -0.7888,0.51072 -1.19706,0.34014 -0.21509,-0.0899 -0.55428,-0.41562 -0.64924,-0.62351 -0.12782,-0.27983 -0.1131,-0.78571 0.0313,-1.07548 0.20433,-0.41003 0.57878,-0.63538 1.06039,-0.63816 0.36382,-0.002 0.62517,0.12076 0.87569,0.41166 0.10264,0.1192 0.21081,0.21673 0.24038,0.21674 0.0798,3e-5 0.63282,-0.53099 0.63282,-0.60764 0,-0.12773 -0.51739,-0.57646 -0.85976,-0.74567 -0.29352,-0.14507 -0.38308,-0.16748 -0.74465,-0.18637 -0.72755,-0.038 -1.22662,0.1606 -1.7172,0.68335 -0.141,0.15024 -0.30653,0.37947 -0.36786,0.50939 -0.22481,0.4763 -0.26198,1.07987 -0.0995,1.61621 0.10418,0.34395 0.48147,0.83865 0.81107,1.06345 0.41582,0.28363 0.73541,0.37336 1.2615,0.3542 0.39046,-0.0142 0.46297,-0.0311 0.75635,-0.1761 z m 3.92418,0.14758 c 0.60403,-0.11455 1.20065,-0.58538 1.49415,-1.17912 0.16953,-0.34295 0.17055,-0.34819 0.1699,-0.87891 -7.8e-4,-0.63213 -0.0797,-0.88335 -0.41491,-1.31998 -0.38651,-0.5035 -0.9121,-0.78021 -1.55556,-0.81894 -0.80221,-0.0483 -1.50312,0.3008 -1.92662,0.95954 -0.3047,0.47394 -0.39533,0.87484 -0.32599,1.44206 0.0594,0.48597 0.24176,0.85665 0.5887,1.19668 0.55083,0.53986 1.21551,0.74182 1.97033,0.59867 z m -0.96204,-1.00123 c -0.45332,-0.2259 -0.70855,-0.69446 -0.66142,-1.21422 0.0284,-0.31374 0.15076,-0.55657 0.38854,-0.77139 0.24554,-0.22183 0.4265,-0.29166 0.75584,-0.29166 0.4099,0 0.60548,0.0756 0.86664,0.33523 0.45838,0.4556 0.49016,1.13478 0.0768,1.64276 -0.33227,0.40838 -0.94819,0.5376 -1.42645,0.29928 z m -12.15762,0.95016 c 0.0967,-0.0346 0.0989,-0.0521 0.11074,-0.86727 l 0.012,-0.83199 h 0.59798 0.59798 l 0.012,0.82949 c 0.0106,0.73359 0.0209,0.83409 0.0886,0.86936 0.0888,0.0463 0.72044,0.0381 0.79877,-0.0103 0.0398,-0.0246 0.0529,-0.52723 0.0529,-2.0218 0,-2.28295 0.0437,-2.08126 -0.45111,-2.08019 -0.50978,10e-4 -0.47512,-0.0534 -0.48908,0.76836 l -0.0121,0.71491 h -0.59798 -0.59798 L 128.3,110.05177 c -0.01,-0.58175 -0.0231,-0.69503 -0.086,-0.74194 -0.0764,-0.057 -0.65541,-0.078 -0.78453,-0.0285 -0.0625,0.024 -0.0701,0.24475 -0.0701,2.03536 0,1.86586 0.005,2.01172 0.0775,2.05425 0.0883,0.0521 0.60341,0.0499 0.75203,-0.003 z m 13.56625,-5.35042 c 0.10096,-0.0294 0.0951,-0.0349 -0.0664,-0.0616 -0.41434,-0.0685 -6.76088,-0.11517 -9.91095,-0.0729 -1.78453,0.024 -3.32432,0.0568 -3.42177,0.0729 -0.16154,0.0267 -0.1674,0.0322 -0.0664,0.0616 0.14472,0.0422 13.32088,0.0422 13.4656,0 z"
         id="path919"
         inkscape:connector-curvature="0" />
      <path
         style="fill:#ca0079;stroke-width:0.04429476"
         d="m 134.62388,121.01736 c -0.24722,-0.0693 -7.5433,-4.27863 -7.73733,-4.46394 -0.0774,-0.0739 -0.20698,-0.25651 -0.28791,-0.40569 l -0.14715,-0.27124 v -4.49592 -4.49592 l 0.11729,-0.25017 c 0.0645,-0.1376 0.195,-0.32696 0.28996,-0.4208 0.0984,-0.0973 0.72402,-0.48777 1.45518,-0.90835 1.38263,-0.79531 4.15268,-2.3969 5.33547,-3.08485 0.40198,-0.23381 0.80063,-0.45018 0.8859,-0.48084 0.24097,-0.0866 0.82956,-0.0732 1.04313,0.0238 0.15694,0.0713 1.02173,0.56617 4.22794,2.41946 0.42634,0.24644 1.31238,0.75582 1.96898,1.13196 1.3468,0.77154 1.5799,0.95658 1.75605,1.39398 l 0.10647,0.2644 v 4.40827 4.40826 l -0.1428,0.29007 c -0.17393,0.35328 -0.36887,0.56065 -0.70757,0.75265 -0.14135,0.0801 -0.68555,0.39378 -1.20934,0.697 -5.42022,3.13773 -5.98567,3.45696 -6.20733,3.5045 -0.27669,0.0593 -0.49295,0.0545 -0.74694,-0.0166 z m 5.55659,-4.38144 c 0.12172,-0.12171 0.38956,-0.17006 0.63235,-0.11414 0.23036,0.053 0.30841,0.0185 0.3683,-0.16294 0.0691,-0.20937 -0.0359,-0.33733 -0.26579,-0.32401 -0.33839,0.0196 -0.48884,-0.002 -0.48884,-0.0697 0,-0.0369 -0.0394,-0.0664 -0.0886,-0.0664 -0.0492,0 -0.0886,0.0295 -0.0886,0.0664 0,0.0456 -0.0452,0.0662 -0.14396,0.0656 -0.0792,-4.4e-4 -0.26852,0.005 -0.42076,0.0111 -0.2856,0.0123 -0.3144,6.7e-4 -0.22373,-0.09 0.0847,-0.0847 -0.0189,-0.14964 -0.21342,-0.13369 l -0.17194,0.0141 -0.0129,0.31422 c -0.0167,0.4081 0.0242,0.44885 0.37897,0.37757 0.22763,-0.0457 0.25962,-0.0429 0.30788,0.0272 0.15562,0.22617 0.26753,0.24817 0.43099,0.0847 z m -0.8835,-0.33863 c -0.015,-0.0244 0.004,-0.0443 0.0417,-0.0443 0.038,0 0.0691,0.0199 0.0691,0.0443 0,0.0244 -0.0188,0.0443 -0.0417,0.0443 -0.0229,0 -0.054,-0.0199 -0.0691,-0.0443 z m -8.49022,0.19972 c 0.059,-0.059 0.054,-0.45019 -0.007,-0.53134 -0.0613,-0.0818 -0.0717,-0.0829 -0.14747,-0.0157 -0.056,0.0497 -0.18885,0.0775 -0.4248,0.0889 -0.30614,0.0148 -0.43705,-0.013 -0.29102,-0.0617 0.10339,-0.0345 -0.003,-0.16714 -0.13404,-0.16714 -0.18851,0 -0.2346,0.0852 -0.21943,0.40586 0.012,0.25262 0.0233,0.28212 0.11295,0.29486 0.0848,0.012 0.0997,-0.006 0.0997,-0.12181 0,-0.0748 0.0199,-0.13597 0.0443,-0.13597 0.0244,0 0.0443,0.0299 0.0443,0.0665 0,0.0365 0.037,0.1035 0.0823,0.14879 0.0702,0.0702 0.13687,0.0799 0.45091,0.0659 0.2027,-0.009 0.37782,-0.0258 0.38915,-0.0371 z m 0.72282,-0.0171 c 0.0474,-0.0459 -0.0125,-0.31548 -0.0701,-0.31548 -0.0337,0 -0.0469,-0.0464 -0.0355,-0.12433 0.023,-0.15665 -0.0796,-0.2503 -0.23234,-0.21198 -0.0784,0.0197 -0.11131,0.058 -0.11131,0.12937 0,0.0558 -0.0293,0.14011 -0.065,0.1874 -0.16934,0.22389 -0.003,0.43588 0.30622,0.38953 0.0988,-0.0148 0.19243,-0.0394 0.20809,-0.0545 z m 1.2893,0.0354 c 0.12719,0.008 0.2712,0.0128 0.36543,0.0113 0.44621,-0.007 0.53144,-0.0161 0.55727,-0.0579 0.0185,-0.0299 0.0396,-0.0318 0.0562,-0.005 0.0146,0.0236 0.1071,0.043 0.20553,0.043 0.15404,0 0.18285,-0.0155 0.20681,-0.11092 0.0153,-0.061 0.009,-0.16293 -0.0129,-0.2265 -0.0433,-0.12255 -0.0421,-0.12234 -0.77737,-0.13494 -0.14425,-0.002 -0.16479,-0.0169 -0.17718,-0.12461 -0.0101,-0.0876 -0.0389,-0.12181 -0.10261,-0.12181 -0.0637,0 -0.0925,0.0342 -0.1026,0.12181 -0.0149,0.12978 -0.0122,0.12888 -0.41968,0.13879 -0.18523,0.005 -0.21541,-0.008 -0.23735,-0.0945 -0.0384,-0.15213 -0.18528,-0.12697 -0.25865,0.0443 l -0.0617,0.14396 -0.0513,-0.14396 c -0.0338,-0.0949 -0.0804,-0.14396 -0.13662,-0.14396 -0.10384,0 -0.16964,0.15595 -0.18367,0.43533 -0.008,0.15957 0.006,0.20693 0.0635,0.21888 0.0447,0.009 0.0856,-0.0221 0.10387,-0.0797 l 0.0301,-0.095 0.0647,0.0924 c 0.0846,0.12071 0.17864,0.1176 0.21832,-0.007 l 0.0317,-0.0997 0.0435,0.0973 c 0.0447,0.10008 0.23552,0.15317 0.40855,0.11367 0.0487,-0.0111 0.12347,-0.0179 0.16611,-0.0151 z m 1.98219,-9.5e-4 c 0.0365,0.001 0.24583,6.5e-4 0.46509,-9.6e-4 0.21926,-0.002 0.42855,-0.003 0.4651,-0.003 0.0365,-9e-5 0.10832,0.0133 0.1595,0.0298 0.0606,0.0195 0.11926,0.004 0.16808,-0.0451 0.094,-0.094 0.0701,-0.17506 -0.0523,-0.17681 -0.0514,-7.3e-4 -0.10776,-0.0157 -0.1253,-0.0332 -0.0175,-0.0175 0.0226,-0.0319 0.0893,-0.0319 0.10035,0 0.11876,-0.0171 0.10704,-0.0997 -0.0114,-0.0801 -0.0468,-0.10237 -0.18026,-0.11341 -0.10866,-0.009 -0.1661,-0.0358 -0.1661,-0.0775 0,-0.0869 -0.28178,-0.0848 -0.35436,0.003 -0.0605,0.0729 -0.33388,0.0911 -0.37477,0.025 -0.0418,-0.0677 -0.29526,-0.17998 -0.40618,-0.17998 -0.11565,0 -0.25337,0.17373 -0.21564,0.27205 0.0133,0.0347 0.0785,0.0987 0.14496,0.14217 l 0.12076,0.0791 -0.12278,-0.0263 c -0.0906,-0.0194 -0.13028,-0.007 -0.15134,0.0481 -0.0394,0.10271 0.15017,0.25308 0.27158,0.21539 0.0501,-0.0156 0.12103,-0.0274 0.15758,-0.0263 z m 4.03404,-0.0253 c 0.0217,-0.0217 0.0516,-0.10031 0.0665,-0.17474 0.0334,-0.16715 -0.0666,-0.28271 -0.24462,-0.28271 -0.0684,0 -0.14911,-0.0299 -0.17944,-0.0664 -0.0707,-0.0851 -0.31006,-0.0889 -0.31006,-0.005 0,0.0748 -0.28817,0.11874 -0.43188,0.0659 -0.056,-0.0206 -0.0997,-0.0739 -0.0997,-0.12162 0,-0.0467 -0.0275,-0.0955 -0.061,-0.10837 -0.0778,-0.0299 -0.16043,0.0517 -0.16043,0.15847 0,0.11387 -0.19111,0.085 -0.22347,-0.0338 -0.035,-0.1286 -0.14228,-0.10855 -0.21343,0.0399 l -0.0616,0.12849 -0.0587,-0.13957 c -0.0705,-0.1678 -0.17913,-0.18041 -0.2482,-0.0288 -0.0609,0.13374 -0.10924,0.14102 -0.14697,0.0222 -0.0155,-0.0487 -0.0666,-0.0886 -0.11372,-0.0886 -0.10606,0 -0.10729,0.11331 -0.005,0.42039 0.0938,0.28028 0.19833,0.31134 0.30376,0.0902 l 0.0763,-0.15998 0.0689,0.14581 c 0.0564,0.11932 0.0945,0.14608 0.21022,0.14733 0.0777,8.4e-4 0.15061,0.0108 0.16195,0.0221 0.0383,0.0383 1.63037,0.008 1.67014,-0.0313 z m -9.76527,-0.0634 0.0992,-0.0932 0.0582,0.0932 c 0.0736,0.11792 0.2141,0.12355 0.2141,0.009 0,-0.0466 -0.0426,-0.19605 -0.0947,-0.33221 -0.0757,-0.19787 -0.11449,-0.24756 -0.19318,-0.24756 -0.0787,0 -0.11745,0.0497 -0.19318,0.24756 -0.15204,0.39731 -0.10785,0.52786 0.10954,0.32363 z m 10.61541,-1.63157 c 1.91943,-0.0285 2.53042,-0.0506 2.58205,-0.0934 0.0435,-0.0361 0.0524,-0.0714 0.0249,-0.0989 -0.0272,-0.0272 -2.65901,-0.0422 -7.21085,-0.0412 -3.94245,8.6e-4 -7.20296,0.003 -7.2456,0.005 -0.10037,0.005 -0.10037,0.1175 0,0.16055 0.19385,0.0831 7.85294,0.12677 11.84954,0.0675 z m -6.44962,-1.46373 c 0.33076,-0.15172 0.60939,-0.42665 0.76383,-0.7537 l 0.11504,-0.24362 v -1.52817 -1.52817 h -0.4651 -0.46509 l -0.026,1.43958 c -0.0143,0.79177 -0.0293,1.44387 -0.0332,1.44911 -0.004,0.005 -0.0681,0.0789 -0.1426,0.16377 -0.25026,0.28504 -0.73196,0.24814 -0.92651,-0.071 -0.0845,-0.1386 -0.0894,-0.22069 -0.0896,-1.50022 -1.4e-4,-1.02139 -0.0139,-1.37241 -0.0562,-1.43024 -0.0478,-0.0654 -0.12073,-0.0748 -0.49831,-0.0638 l -0.44228,0.0128 v 1.50602 1.50602 l 0.12755,0.27615 c 0.37043,0.80201 1.31879,1.14147 2.13851,0.76547 z m 3.97048,0.0467 c 0.57452,-0.19767 1.03369,-0.67151 1.20025,-1.23861 0.0985,-0.33536 0.13999,-0.89493 0.0753,-1.01575 -0.0504,-0.0941 -0.0728,-0.0964 -0.9492,-0.0964 -0.63909,0 -0.91293,0.0153 -0.95077,0.0532 -0.0336,0.0336 -0.0532,0.2027 -0.0532,0.46035 0,0.33045 0.0132,0.41227 0.0701,0.43409 0.0385,0.0148 0.24041,0.0269 0.44862,0.0269 h 0.37856 l -0.1099,0.14395 c -0.49084,0.64294 -1.58641,0.38614 -1.82955,-0.42884 -0.17229,-0.57748 0.0403,-1.13361 0.54715,-1.43158 0.17689,-0.10399 0.25564,-0.12162 0.53935,-0.12074 0.40534,0.001 0.59503,0.0892 0.89524,0.41512 0.11457,0.12437 0.22439,0.22613 0.24405,0.22613 0.0197,0 0.17002,-0.12118 0.33412,-0.2693 0.1965,-0.17734 0.29838,-0.30261 0.29838,-0.36686 0,-0.11097 -0.32196,-0.45737 -0.60981,-0.65608 -0.39988,-0.27606 -1.04651,-0.40356 -1.53885,-0.30341 -1.74065,0.35408 -2.37292,2.48249 -1.09419,3.68345 0.16513,0.15508 0.39374,0.32797 0.50804,0.38419 0.47984,0.23603 1.09013,0.27434 1.59627,0.10021 z m 4.34897,-0.003 c 0.3675,-0.12644 0.61297,-0.28892 0.89989,-0.59564 0.28886,-0.30879 0.41377,-0.53393 0.51658,-0.93109 0.19272,-0.74449 -0.044,-1.51768 -0.63336,-2.06903 -0.68538,-0.64114 -1.57483,-0.77677 -2.42108,-0.36919 -0.36527,0.17593 -0.78513,0.56521 -0.96195,0.89189 -0.33836,0.62512 -0.33836,1.4429 0,2.07164 0.27606,0.51298 0.9339,0.98342 1.51862,1.08601 0.31479,0.0552 0.78088,0.0188 1.0813,-0.0846 z m -0.97983,-0.88178 c -0.33373,-0.0853 -0.71225,-0.43809 -0.80606,-0.75118 -0.0779,-0.26013 -0.0625,-0.70838 0.0315,-0.9153 0.10001,-0.22016 0.31224,-0.43671 0.55344,-0.56473 0.25493,-0.13531 0.76898,-0.13438 1.03069,0.002 0.40617,0.21144 0.60099,0.52549 0.62796,1.01226 0.0136,0.24496 -0.002,0.35937 -0.0693,0.51164 -0.11914,0.26935 -0.3521,0.52296 -0.56813,0.61853 -0.21362,0.0945 -0.60443,0.13695 -0.80009,0.0869 z m -12.28517,0.83651 c 0.0289,-0.0539 0.0462,-0.36485 0.0439,-0.78623 -0.002,-0.38335 -0.003,-0.73188 -0.002,-0.77451 0.002,-0.0697 0.0597,-0.0775 0.57784,-0.0775 h 0.57583 v 0.8106 c 0,0.5714 0.0157,0.82628 0.0532,0.86375 0.0336,0.0335 0.20179,0.0532 0.45623,0.0532 0.25445,0 0.42269,-0.0196 0.45624,-0.0532 0.0699,-0.0699 0.0768,-3.89504 0.007,-4.02488 -0.0403,-0.0752 -0.0958,-0.0857 -0.45624,-0.0857 -0.26012,0 -0.42984,0.0195 -0.46353,0.0532 -0.0367,0.0367 -0.0532,0.26282 -0.0532,0.73087 v 0.67771 l -0.5869,-4e-5 -0.58691,-4e-5 0.004,-0.63394 c 0.002,-0.34866 -0.0123,-0.67823 -0.0324,-0.73238 -0.0348,-0.0942 -0.0561,-0.0979 -0.49129,-0.0858 l -0.45487,0.0126 -0.0115,2.01032 c -0.008,1.44745 0.003,2.02725 0.0386,2.07078 0.0358,0.0432 0.16841,0.0605 0.464,0.0605 0.36948,0 0.41893,-0.01 0.46157,-0.0892 z m 13.76425,-5.25483 c 0.14352,-0.0172 0.23255,-0.0494 0.23255,-0.0841 0,-0.0389 -0.13239,-0.0676 -0.43187,-0.0935 -0.23753,-0.0205 -3.31214,-0.0374 -6.83247,-0.0374 -3.52033,0 -6.59494,0.0168 -6.83247,0.0374 -0.31395,0.0272 -0.43187,0.0536 -0.43187,0.097 0,0.0363 0.065,0.0664 0.1661,0.077 0.28387,0.0297 13.88394,0.0331 14.13003,0.004 z"
         id="path917"
         inkscape:connector-curvature="0" />
    </g>
    <g
       id="g890"
       transform="translate(0,-2.5177008)">
      <text
         id="text817"
         y="115.80767"
         x="76.86599"
         style="font-style:normal;font-weight:normal;font-size:13.40342808px;line-height:1.25;font-family:sans-serif;letter-spacing:0px;word-spacing:0px;fill:#000000;fill-opacity:1;stroke:none;stroke-width:0.33508569"
         xml:space="preserve"><tspan
           style="font-style:normal;font-variant:normal;font-weight:900;font-stretch:normal;line-height:0.2;font-family:Montserrat;-inkscape-font-specification:'Montserrat Heavy';stroke-width:0.33508569"
           y="115.80767"
           x="76.86599"
           id="tspan815"
           sodipodi:role="line">a<tspan
   id="tspan823"
   style="line-height:0.2;fill:#80b3ff;stroke-width:0.33508569">b</tspan></tspan><tspan
           id="tspan878"
           style="font-style:normal;font-variant:normal;font-weight:200;font-stretch:normal;font-size:7.0555563px;line-height:0.2;font-family:Montserrat;-inkscape-font-specification:'Montserrat Ultra-Light';stroke-width:0.33508569"
           y="132.56195"
           x="76.86599"
           sodipodi:role="line" /></text>
      <text
         id="text882"
         y="121.61906"
         x="76.918152"
         style="font-style:normal;font-weight:normal;font-size:10.58333302px;line-height:1.25;font-family:sans-serif;letter-spacing:0px;word-spacing:0px;fill:#000000;fill-opacity:1;stroke:none;stroke-width:0.26458332"
         xml:space="preserve"><tspan
           style="font-style:normal;font-variant:normal;font-weight:200;font-stretch:normal;font-size:7.05555534px;font-family:Montserrat;-inkscape-font-specification:'Montserrat Ultra-Light';stroke-width:0.26458332"
           y="121.61906"
           x="76.918152"
           id="tspan880"
           sodipodi:role="line">.com</tspan></text>
    </g>
    <text
       xml:space="preserve"
       style="font-style:normal;font-weight:normal;font-size:10.58333302px;line-height:1.25;font-family:sans-serif;letter-spacing:0px;word-spacing:0px;fill:#000000;fill-opacity:1;stroke:none;stroke-width:0.26458332"
       x="97.328865"
       y="113.11388"
       id="text894"><tspan
         sodipodi:role="line"
         id="tspan892"
         x="97.328865"
         y="113.11388"
         style="font-style:normal;font-variant:normal;font-weight:300;font-stretch:normal;font-size:7.05555534px;font-family:Montserrat;-inkscape-font-specification:'Montserrat Light';stroke-width:0.26458332">+         +</tspan></text>
  </g>
</svg>
